<svg width="305" height="335" viewBox="0 0 305 335" fill="none" xmlns="http://www.w3.org/2000/svg">
<mask id="mask0_1_4" style="mask-type:alpha" maskUnits="userSpaceOnUse" x="0" y="0" width="305" height="335">
<rect width="305" height="335" fill="#FFE9EC"/>
</mask>
<g mask="url(#mask0_1_4)">
<path d="M72.6045 98.6117C86.4337 81.8936 66.916 77.6662 55.4285 77.6422C17.8613 79.118 16.6671 108.003 31.0142 117.792C45.3614 127.582 55.3181 119.509 72.6045 98.6117Z" fill="url(#paint0_linear_1_4)"/>
<path d="M386.32 185.901C369.227 132.772 375.209 84.2978 380.337 66.7016C390.593 -9.92669 279.487 -8.22386 193.167 -20.9953C106.846 -33.7666 130.463 78.7132 81.6151 117.848C50.7097 142.608 -3.40536 212.296 48.7289 291.478C100.863 370.661 254.702 340.861 310.255 317.872C365.808 294.884 407.686 252.313 386.32 185.901Z" fill="url(#paint1_linear_1_4)"/>
<g opacity="0.4">
<path d="M133.299 221.483C133.273 221.444 133.234 221.405 133.208 221.366C132.479 220.415 131.619 219.425 130.641 218.395C127.371 214.969 123.554 212.48 119.802 210.839C119.762 210.826 119.723 210.8 119.684 210.787C112.636 207.725 105.887 207.66 103.503 209.94C103.424 210.018 103.333 210.109 103.255 210.2L103.177 210.292C100.91 213.262 101.223 222.799 106.187 231.411L106.278 231.568C107.476 233.613 108.936 235.606 110.681 237.443C119.241 246.407 125.456 245.639 130.641 241.521C130.694 241.482 130.733 241.443 130.785 241.404C130.811 241.378 130.85 241.352 130.876 241.326C130.993 241.235 131.111 241.131 131.228 241.039C131.58 240.74 131.931 240.414 132.283 240.088C133.182 239.228 134.003 238.329 134.693 237.391C137.377 233.756 138.211 229.496 135.006 224.024C134.537 223.19 133.977 222.356 133.299 221.483Z" fill="white"/>
<path d="M125.899 233.691C123.306 229.887 120.57 226.187 117.561 222.734C117.535 222.708 117.509 222.682 117.482 222.643C115.176 219.985 112.701 217.484 110.017 215.178C107.893 213.353 105.639 211.673 103.268 210.188L103.19 210.279C111.346 215.399 117.795 222.63 123.424 230.395C123.45 230.421 123.463 230.46 123.489 230.486C124.739 232.219 125.964 233.991 127.137 235.763C128.218 237.378 129.273 239.007 130.316 240.649C130.472 240.896 130.641 241.144 130.798 241.404C130.824 241.378 130.863 241.352 130.889 241.326C130.628 240.909 130.355 240.479 130.081 240.062C128.739 237.952 127.371 235.854 125.951 233.796C125.938 233.756 125.925 233.717 125.899 233.691Z" fill="white"/>
<path d="M117.43 222.708C117.378 222.76 117.469 222.838 117.522 222.786C117.535 222.773 117.548 222.76 117.561 222.734C119.046 220.91 119.463 218.382 119.723 216.115C119.932 214.357 119.958 212.585 119.815 210.826C119.776 210.813 119.736 210.787 119.697 210.774C119.841 212.454 119.828 214.148 119.645 215.829C119.398 218.161 118.994 220.767 117.482 222.643C117.469 222.669 117.456 222.682 117.43 222.708Z" fill="white"/>
<path d="M123.489 230.369C123.463 230.382 123.449 230.395 123.423 230.408C118.225 233.183 111.672 233.665 106.199 231.398L106.291 231.554C111.776 233.756 118.303 233.261 123.489 230.486C123.502 230.473 123.515 230.473 123.528 230.46C123.593 230.434 123.554 230.33 123.489 230.369Z" fill="white"/>
<path d="M125.847 233.743C125.795 233.795 125.86 233.887 125.912 233.835C125.925 233.822 125.951 233.808 125.964 233.782C129.599 230.59 132.192 226.2 133.312 221.47C133.286 221.431 133.247 221.392 133.221 221.353C132.114 226.082 129.534 230.486 125.899 233.691C125.886 233.704 125.86 233.717 125.847 233.743Z" fill="white"/>
</g>
<g opacity="0.4">
<path d="M164.777 217.965C164.829 217.9 164.868 217.835 164.92 217.783C166.08 216.272 167.422 214.721 168.972 213.093C174.144 207.686 180.164 203.751 186.066 201.171C186.131 201.145 186.196 201.119 186.261 201.093C197.375 196.273 208.032 196.168 211.784 199.751C211.915 199.882 212.045 200.012 212.162 200.168L212.279 200.312C215.849 204.989 215.367 220.037 207.537 233.613L207.394 233.874C205.518 237.105 203.211 240.245 200.449 243.137C186.939 257.286 177.141 256.061 168.959 249.573C168.881 249.508 168.803 249.456 168.737 249.391C168.685 249.352 168.646 249.313 168.594 249.273C168.412 249.117 168.229 248.974 168.047 248.817C167.487 248.335 166.939 247.84 166.392 247.319C164.972 245.964 163.682 244.544 162.575 243.059C158.341 237.339 157.025 230.603 162.08 221.965C162.822 220.675 163.721 219.347 164.777 217.965Z" fill="white"/>
<path d="M176.463 237.235C180.554 231.242 184.88 225.405 189.622 219.946C189.661 219.894 189.701 219.855 189.74 219.803C193.388 215.62 197.283 211.66 201.518 208.025C204.879 205.145 208.423 202.5 212.175 200.155L212.292 200.299C199.433 208.363 189.245 219.79 180.372 232.037C180.333 232.089 180.307 232.141 180.268 232.18C178.287 234.916 176.372 237.704 174.509 240.492C172.815 243.046 171.148 245.612 169.493 248.192C169.245 248.583 168.985 248.987 168.737 249.378C168.685 249.339 168.646 249.3 168.594 249.261C169.011 248.596 169.441 247.932 169.858 247.267C171.981 243.945 174.144 240.636 176.372 237.378C176.385 237.339 176.424 237.287 176.463 237.235Z" fill="white"/>
<path d="M189.818 219.907C189.896 219.998 189.753 220.115 189.674 220.024C189.648 219.998 189.635 219.972 189.609 219.946C187.264 217.066 186.613 213.093 186.196 209.51C185.87 206.735 185.831 203.947 186.066 201.171C186.131 201.145 186.196 201.119 186.261 201.093C186.026 203.751 186.052 206.422 186.339 209.08C186.73 212.754 187.355 216.871 189.74 219.829C189.753 219.842 189.779 219.881 189.818 219.907Z" fill="white"/>
<path d="M180.255 231.984C180.294 231.997 180.32 232.024 180.359 232.037C188.554 236.414 198.899 237.17 207.537 233.613L207.394 233.874C198.743 237.352 188.437 236.571 180.268 232.193C180.242 232.18 180.229 232.167 180.203 232.154C180.085 232.102 180.151 231.932 180.255 231.984Z" fill="white"/>
<path d="M176.542 237.313C176.633 237.391 176.529 237.535 176.437 237.457C176.411 237.431 176.385 237.404 176.359 237.378C170.627 232.336 166.535 225.405 164.777 217.966C164.829 217.9 164.868 217.835 164.92 217.783C166.653 225.236 170.731 232.193 176.463 237.235C176.489 237.261 176.515 237.287 176.542 237.313Z" fill="white"/>
</g>
<path d="M205.961 167.909C205.961 167.909 201.44 168.951 200.632 170.228C199.824 171.518 199.837 179.114 201.987 179.414C204.123 179.713 210.521 175.922 211.016 175.323C211.511 174.749 205.961 167.909 205.961 167.909Z" fill="#F8B499"/>
<path d="M207.016 156.705C207.016 156.705 201.674 157.929 200.71 159.454C199.759 160.978 199.772 169.968 202.299 170.307C204.827 170.658 212.384 166.176 212.983 165.473C213.582 164.782 207.016 156.705 207.016 156.705Z" fill="#F8B499"/>
<path d="M207.016 141.565C207.016 141.565 201.674 142.79 200.71 144.314C199.746 145.839 199.772 154.828 202.299 155.167C204.827 155.519 211.263 151.949 211.849 151.246C212.462 150.555 207.016 141.565 207.016 141.565Z" fill="#F8B499"/>
<path d="M177.858 159.128C178.001 158.138 174.014 146.425 174.991 146.243C180.633 145.213 199.629 130.96 206.938 126.725C212.136 123.716 215.849 127.846 213.231 131.351C206.833 139.898 176.633 167.297 177.858 159.128Z" fill="white"/>
<g opacity="0.3">
<path d="M239.939 282.002C238.571 283.37 237.047 284.594 235.275 285.363C231.783 286.887 227.797 286.457 223.979 286.77C223.823 286.783 223.667 286.796 223.51 286.809C222.142 286.953 220.8 287.2 219.523 287.682C218.585 288.034 217.621 288.594 217.282 289.545C216.879 290.679 217.543 291.943 218.403 292.789C219.263 293.636 220.344 294.262 221.1 295.2C221.491 295.682 221.764 296.242 221.947 296.828H190.417L179.108 293.923C178.34 293.415 177.584 292.894 176.841 292.36C176.216 291.917 175.604 291.447 175.004 290.978C175.004 290.978 174.34 289.728 173.337 287.799C173.232 287.591 173.115 287.383 173.011 287.174C172.92 287.005 172.841 286.835 172.75 286.666C169.285 280.034 163.096 268.074 163.435 267.735C163.721 267.449 169.193 266.302 175.903 264.96C178.027 264.543 180.268 264.1 182.509 263.657C188.723 262.433 194.938 261.234 198.495 260.491C200.254 260.126 201.361 259.879 201.518 259.788C202.169 259.423 202.86 259.11 203.576 258.876C204.345 258.615 205.14 258.42 205.947 258.302C206.39 258.237 206.846 258.198 207.302 258.172C207.719 258.159 208.149 258.159 208.566 258.185C209.074 258.224 209.582 258.289 210.091 258.381C210.729 258.511 211.354 258.693 211.967 258.928C212.332 259.071 212.709 259.24 213.061 259.449C213.27 259.566 213.465 259.683 213.673 259.827C215.12 260.804 216.24 262.237 216.266 263.944C216.266 264.074 216.266 264.204 216.253 264.335C216.175 265.429 215.784 266.55 216.136 267.579C216.696 269.247 218.716 269.703 220.54 269.716C220.761 269.716 220.983 269.716 221.191 269.703C224.552 269.533 227.914 269.051 231.275 269.207C234.637 269.364 238.102 270.263 240.617 272.517C241.659 273.455 242.532 274.653 242.741 276.035C242.741 276.061 242.754 276.087 242.754 276.113C242.754 276.139 242.754 276.165 242.767 276.191C242.962 278.393 241.503 280.438 239.939 282.002Z" fill="#C8E69A"/>
</g>
<path d="M229.621 257.508C229.256 258.915 228.591 260.309 227.849 261.56C226.533 263.801 224.943 265.911 222.898 267.514C217.243 271.931 209.035 271.683 203.159 275.826C202.052 276.608 200.983 277.65 200.866 279.005C200.723 280.621 202 282.041 203.407 282.849C204.814 283.657 206.429 284.113 207.719 285.09C210.364 287.083 211.094 290.979 209.921 294.079C209.53 295.096 208.97 296.021 208.293 296.868H150.823C149.286 296.307 147.761 295.695 146.25 295.044C145.69 294.418 122.928 269.39 123.371 268.647C123.619 268.231 129.352 265.403 129.56 265.299C129.573 265.286 135.723 262.25 154.849 253.117C163.135 249.169 169.91 245.912 170.301 245.534C171.747 244.153 173.441 243.033 175.278 242.225C177.818 241.105 180.737 240.571 183.603 240.935C185.688 241.196 187.929 242.03 189.414 243.541C191.173 245.326 191.043 247.007 191.264 248.7C191.355 249.456 191.525 250.173 191.929 250.798C193.362 253.026 196.697 252.648 199.225 251.866C204.514 250.225 209.674 247.932 215.159 247.385C215.888 247.385 220.826 246.603 225.477 249.026C227.171 249.899 228.839 251.28 229.49 253.091C229.503 253.156 230.337 254.707 229.621 257.508Z" fill="#C8E69A"/>
<path d="M227.028 253.99C226.859 254.016 226.676 254.029 226.507 254.055C222.364 254.55 218.325 255.319 214.403 256.348C214.39 256.348 214.39 256.348 214.377 256.361C213.921 256.478 213.465 256.609 213.009 256.726C207.368 258.302 201.987 260.439 196.932 263.11C195.251 263.996 193.609 264.934 192.007 265.937C191.108 266.497 190.222 267.071 189.349 267.67C184.984 270.628 180.906 274.028 177.167 277.832C174.275 280.764 171.877 283.656 169.923 286.275C169.454 286.913 168.998 287.526 168.581 288.138C168.464 288.308 168.334 288.477 168.216 288.659C165.558 292.516 163.995 295.552 163.357 296.867H162.731C163.409 295.447 165.584 291.122 169.636 285.728C171.565 283.148 173.923 280.321 176.75 277.455C176.854 277.35 176.959 277.246 177.063 277.142C177.428 276.777 177.792 276.412 178.17 276.048C183.694 270.693 189.909 266.185 196.658 262.615C199.003 261.377 201.413 260.257 203.876 259.253C204.397 259.045 204.918 258.837 205.439 258.628C208.136 257.599 210.898 256.7 213.726 255.931C217.686 254.863 221.79 254.068 225.986 253.534C226.311 253.495 226.624 253.456 226.95 253.417C227.106 253.404 227.249 253.508 227.262 253.664C227.289 253.834 227.184 253.977 227.028 253.99Z" fill="#99C251"/>
<path d="M172.985 265.533C172.907 264.335 172.946 263.24 173.05 262.224C173.623 256.882 179.669 256.544 180.698 261.794C180.919 262.902 181.05 264.1 181.076 265.403C181.193 273.194 177.206 277.259 177.206 277.259C177.206 277.259 173.506 273.911 172.985 265.533Z" fill="#99C251"/>
<path d="M233.086 251.28C233.803 251.254 234.467 251.306 235.08 251.384C238.285 251.84 238.363 255.475 235.184 255.983C234.519 256.088 233.79 256.153 233.008 256.14C228.318 256.062 225.959 253.586 225.959 253.586C225.959 253.586 228.044 251.436 233.086 251.28Z" fill="#99C251"/>
<path d="M204.241 250.563C204.501 249.743 204.814 249.013 205.153 248.362C206.938 244.922 211.094 246.277 210.403 250.081C210.26 250.876 210.038 251.723 209.713 252.609C207.745 257.873 204.006 259.566 204.006 259.566C204.006 259.566 202.404 256.335 204.241 250.563Z" fill="#99C251"/>
<path d="M199.433 265.364C200.436 265.468 201.361 265.638 202.195 265.872C206.599 267.084 206.052 272.191 201.505 272.334C200.554 272.36 199.524 272.321 198.43 272.152C191.889 271.188 189.036 267.305 189.036 267.305C189.036 267.305 192.358 264.66 199.433 265.364Z" fill="#99C251"/>
<path d="M220.422 257.482C221.087 257.755 221.673 258.068 222.194 258.407C224.917 260.139 223.484 263.488 220.383 262.641C219.732 262.458 219.041 262.211 218.338 261.872C214.103 259.853 212.983 256.622 212.983 256.622C212.983 256.622 215.771 255.527 220.422 257.482Z" fill="#99C251"/>
<path d="M181.297 284.06C182.626 283.995 183.864 284.06 184.984 284.204C190.938 284.959 191.186 291.695 185.31 292.737C184.072 292.959 182.73 293.089 181.271 293.076C172.581 293.05 168.125 288.529 168.125 288.529C168.125 288.529 171.955 284.49 181.297 284.06Z" fill="#99C251"/>
<path d="M189.583 288.412C189.075 288.138 188.476 287.982 187.916 287.838C186.886 287.578 185.844 287.395 184.789 287.252C181.558 286.809 178.261 286.783 175.004 287.109C172.698 287.343 170.405 287.747 168.151 288.333C168.06 288.36 168.099 288.49 168.19 288.464C174.366 286.848 181.206 286.392 187.473 287.877C188.15 288.034 188.88 288.203 189.492 288.529C189.596 288.568 189.661 288.451 189.583 288.412Z" fill="#C8E69A"/>
<path d="M176.099 257.82C177.219 260.726 177.31 263.866 177.35 266.941C177.402 270.198 177.441 273.442 177.271 276.699C177.271 276.79 177.402 276.79 177.415 276.699C177.597 273.377 177.545 270.054 177.493 266.732C177.454 263.709 177.336 260.635 176.229 257.781C176.203 257.69 176.06 257.729 176.099 257.82Z" fill="#C8E69A"/>
<path d="M189.297 267.41C192.202 266.758 195.212 266.719 198.13 267.318C200.54 267.813 203.42 268.699 204.553 271.097C204.592 271.175 204.71 271.11 204.671 271.032C203.537 268.66 200.736 267.748 198.352 267.227C195.355 266.576 192.241 266.602 189.245 267.266C189.166 267.305 189.205 267.436 189.297 267.41Z" fill="#C8E69A"/>
<path d="M223.015 262.354C221.308 258.746 217.4 256.426 213.413 256.648C213.322 256.648 213.322 256.791 213.413 256.791C217.361 256.57 221.204 258.85 222.898 262.42C222.924 262.511 223.041 262.446 223.015 262.354Z" fill="#C8E69A"/>
<path d="M204.202 259.501C206.625 255.645 207.98 251.189 208.097 246.629C208.097 246.538 207.954 246.538 207.954 246.629C207.837 251.163 206.495 255.592 204.071 259.423C204.032 259.514 204.149 259.579 204.202 259.501Z" fill="#C8E69A"/>
<path d="M226.129 253.795C229.686 252.505 234.154 251.345 237.32 254.146C237.386 254.211 237.49 254.107 237.425 254.042C234.207 251.215 229.699 252.348 226.09 253.651C226.012 253.69 226.051 253.821 226.129 253.795Z" fill="#C8E69A"/>
<path d="M139.345 295.148C137.951 295.747 136.53 296.32 135.097 296.841H81.6795C81.0411 296.06 80.5199 295.2 80.1682 294.262C79.0737 291.382 79.7512 287.76 82.2137 285.91C83.4253 284.998 84.9236 284.581 86.2265 283.826C87.5294 283.07 88.728 281.754 88.5847 280.256C88.4675 279.005 87.4773 278.028 86.448 277.311C80.989 273.468 73.3672 273.689 68.1036 269.585C66.2014 268.1 64.7291 266.133 63.5044 264.061C62.0973 261.664 60.9638 258.745 61.967 256.166C61.967 256.153 62.0322 255.996 62.0452 255.983C62.7227 254.381 64.1559 253.195 65.7063 252.387C69.4455 250.446 73.9144 250.446 78.0445 251.293C82.1746 252.14 86.0832 253.795 90.096 255.032C92.4542 255.762 95.529 256.101 96.871 254.042C97.6527 252.83 97.4703 251.241 97.77 249.899C98.4084 246.902 101.574 245.235 104.61 244.857C107.059 244.557 109.639 244.922 112.062 245.938C112.075 245.938 112.141 245.964 112.18 245.99C115.906 247.567 119.111 250.616 120.583 254.511C120.596 254.511 135.879 287.643 139.345 295.148Z" fill="#C8E69A"/>
<path d="M119.463 279.592C119.463 279.592 131.332 200.155 131.501 196.651C131.762 190.996 168.503 198.983 166.353 207.126C162.51 221.666 169.936 279.592 169.936 279.592H119.463Z" fill="white"/>
<path d="M134.941 201.224C134.941 201.224 127.775 196.416 128.857 185.98C129.938 175.544 136.335 167.779 142.25 163.675C151.956 156.939 154.562 156.639 152.543 160.835C151.422 163.167 153.976 173.564 163.252 173.121C170.939 172.756 154.575 211.542 134.941 201.224Z" fill="white"/>
<path d="M130.837 196.807C131.918 198.709 134.146 199.882 136.061 200.768C136.218 200.833 136.348 200.611 136.192 200.546C134.302 199.686 132.114 198.54 131.058 196.677C130.98 196.533 130.759 196.664 130.837 196.807Z" fill="#F18E7B"/>
<path d="M155.761 209.757C158.588 211.464 162.406 211.503 165.598 211.256C165.767 211.243 165.767 210.982 165.598 210.995C162.432 211.243 158.692 211.23 155.891 209.536C155.748 209.445 155.618 209.666 155.761 209.757Z" fill="#F18E7B"/>
<path d="M142.771 150.789C143.97 158.893 140.556 165.525 141.065 167.193C141.586 168.847 144.152 176.208 144.152 176.208C144.152 176.208 129.195 193.55 128.765 188.937C128.205 182.983 128.909 166.463 131.032 161.343C132.804 157.056 133.547 152.757 133.938 149.239C134.394 145.2 134.394 142.203 135.019 141.409C135.071 141.344 135.123 141.291 135.176 141.265C136.609 140.406 141.56 142.568 142.771 150.789Z" fill="white"/>
<path d="M137.43 145.734C137.117 149.395 135.957 149.265 133.938 149.239C133.755 145.252 134.029 142.229 135.019 141.409C135.475 141.344 136.452 141.682 136.713 142.112C137.234 142.946 137.508 144.796 137.43 145.734Z" fill="#F4F4F4"/>
<path d="M109.509 139.298L115.606 137.982C116.284 137.839 116.805 138.49 116.492 139.09L113.652 144.471C113.522 144.705 113.535 144.992 113.652 145.213L116.584 150.307C116.909 150.881 116.401 151.584 115.711 151.506L109.6 150.816C109.327 150.789 109.053 150.881 108.871 151.076L104.584 155.532C104.102 156.027 103.268 155.806 103.164 155.167L102.226 149.356C102.187 149.096 102.017 148.887 101.77 148.783L96.1936 146.451C95.5682 146.19 95.5682 145.343 96.1805 145.018L101.705 142.112C101.952 141.982 102.122 141.748 102.161 141.487L103.008 135.585C103.099 134.92 103.946 134.621 104.428 135.064L108.779 139.077C108.962 139.285 109.235 139.363 109.509 139.298Z" fill="#FFB041"/>
<path d="M105.535 137.539C106.108 137.722 107.919 139.598 108.805 139.819C110.017 140.132 113.939 138.842 114.277 139.259C114.89 139.989 110.082 142.217 108.037 141.774C106.108 141.357 103.841 136.979 105.535 137.539Z" fill="#FFC06E"/>
<path d="M241.034 125.54L246.18 128.888C246.753 129.266 246.662 130.087 246.024 130.282L240.291 132.041C240.044 132.119 239.848 132.315 239.783 132.562L238.259 138.138C238.089 138.764 237.243 138.894 236.813 138.36L233.047 133.618C232.878 133.409 232.617 133.279 232.344 133.292L226.259 133.396C225.582 133.409 225.152 132.666 225.53 132.145L228.943 127.455C229.1 127.246 229.126 126.973 229.021 126.738L226.78 121.227C226.533 120.615 227.119 120.016 227.771 120.224L233.634 122.074C233.894 122.152 234.168 122.113 234.376 121.957L239.08 118.452C239.601 118.061 240.395 118.439 240.422 119.091L240.643 124.927C240.656 125.149 240.799 125.396 241.034 125.54Z" fill="#FFB041"/>
<path d="M239.496 121.54C239.77 122.074 239.718 124.641 240.174 125.409C240.799 126.478 244.421 128.315 244.369 128.849C244.278 129.787 239.392 127.963 238.285 126.23C237.242 124.589 238.715 119.976 239.496 121.54Z" fill="#FFC06E"/>
<path d="M216.853 97.4891C215.485 97.8539 214.13 98.4402 213.661 98.2708C212.371 97.7887 212.162 90.649 210.677 90.9878C209.765 91.1962 209.648 91.4177 209.27 96.6552C209.088 99.1046 206.247 100.121 206.104 101.697C206.104 101.697 207.55 108.498 208.749 109.84C209.609 110.804 218.299 108.915 219.784 107.899C221.23 106.896 220.357 105.801 220.214 105.658C221.582 105.059 221.061 103.026 220.11 102.831C220.11 102.831 221.4 100.368 219.367 99.5867C220.214 98.818 219.719 96.7334 216.853 97.4891Z" fill="#FFBF61"/>
<path d="M207.003 99.9124L202.847 100.733C202.234 100.85 201.843 101.463 201.974 102.075L203.915 110.531C204.058 111.156 204.697 111.534 205.309 111.352L209.322 110.179C209.504 110.127 209.609 109.945 209.57 109.762L207.381 100.16C207.342 99.9906 207.172 99.8864 207.003 99.9124Z" fill="#7F5AE5"/>
<path d="M183.542 105.767C187.149 102.16 187.149 96.3112 183.542 92.7039C179.934 89.0965 174.085 89.0965 170.478 92.7039C166.871 96.3112 166.871 102.16 170.478 105.767C174.085 109.375 179.934 109.375 183.542 105.767Z" fill="#FFBF61"/>
<path d="M172.112 101.45C172.112 101.45 177.949 100.772 182.248 98.0884C182.248 98.0884 182.861 102.557 178.574 103.977C174.275 105.411 172.112 101.45 172.112 101.45Z" fill="white"/>
<path d="M172.19 97.8407C171.955 97.1241 172.19 96.4075 172.737 96.2251C173.271 96.0427 173.897 96.4857 174.131 97.2023C174.366 97.9189 174.131 98.6355 173.584 98.8179C173.063 98.9872 172.437 98.5573 172.19 97.8407Z" fill="#353659"/>
<path d="M179.503 96.8633C180.036 96.6865 180.275 95.9619 180.037 95.2448C179.799 94.5277 179.174 94.0898 178.641 94.2666C178.109 94.4434 177.87 95.168 178.108 95.8851C178.346 96.6021 178.97 97.0401 179.503 96.8633Z" fill="#353659"/>
<path d="M202.977 124.511V214.578C202.977 217.666 200.476 220.154 197.401 220.154H147.488C144.817 220.154 142.576 218.265 142.029 215.751C141.951 215.373 141.898 214.982 141.898 214.578V124.511C141.898 123.963 141.977 123.442 142.12 122.947C142.797 120.628 144.934 118.934 147.475 118.934H197.388C200.476 118.934 202.977 121.436 202.977 124.511Z" fill="#FFEBD9"/>
<path d="M197.388 220.832H147.475C144.035 220.832 141.234 218.031 141.234 214.591V124.511C141.234 121.071 144.035 118.27 147.475 118.27H197.388C200.827 118.27 203.628 121.071 203.628 124.511V214.578C203.641 218.031 200.84 220.832 197.388 220.832ZM147.475 119.599C144.765 119.599 142.563 121.801 142.563 124.511V214.578C142.563 217.288 144.765 219.49 147.475 219.49H197.388C200.098 219.49 202.3 217.288 202.3 214.578V124.511C202.3 121.801 200.098 119.599 197.388 119.599H147.475Z" fill="#353659"/>
<path d="M195.329 158.633C193.401 165.225 186.326 172.873 172.672 178.228V178.28C172.646 178.267 172.62 178.267 172.607 178.254C172.581 178.267 172.568 178.267 172.542 178.28V178.241C147.826 168.548 144.608 151.128 154.562 146.399C155.096 146.151 155.67 145.93 156.269 145.747C164.868 143.233 172.542 154.815 172.542 154.815C172.542 154.815 172.998 154.138 173.806 153.161C174.275 152.587 174.874 151.897 175.578 151.167C178.652 147.975 183.707 144.093 188.958 145.747C194.6 147.532 197.075 152.653 195.329 158.633Z" fill="#FF6A51"/>
<path d="M206.221 141.839C206.221 141.839 200.423 143.52 201.361 149.604C202.299 155.688 211.029 152.991 212.449 150.555C213.869 148.132 210.299 139.989 206.221 141.839Z" fill="white"/>
<path d="M207.302 143.924C206.338 143.963 203.68 144.64 203.68 145.292C203.68 145.943 206.625 148.353 207.003 150.242C207.394 152.132 210.494 148.627 210.716 147.871C211.081 146.594 209.843 143.819 207.302 143.924Z" fill="#F4F4F4"/>
<path d="M209.061 156.04C209.061 156.04 199.785 158.281 201.361 164.743C202.834 170.724 212.553 166.359 214.533 164.352C216.605 162.242 214.911 154.672 209.061 156.04Z" fill="white"/>
<path d="M208.54 158.581C207.576 158.62 203.694 159.779 203.694 160.431C203.694 161.082 206.638 163.492 207.016 165.382C207.407 167.271 211.198 163.414 211.407 162.659C211.771 161.382 211.081 158.476 208.54 158.581Z" fill="#F4F4F4"/>
<path d="M207.68 167.349C207.68 167.349 199.824 169.251 201.166 174.71C202.404 179.765 210.638 176.078 212.306 174.371C214.064 172.587 212.631 166.189 207.68 167.349Z" fill="white"/>
<path d="M207.25 169.499C206.429 169.538 203.146 170.515 203.146 171.062C203.146 171.609 205.635 173.655 205.96 175.244C206.286 176.847 209.491 173.577 209.674 172.938C209.973 171.87 209.387 169.408 207.25 169.499Z" fill="#F4F4F4"/>
<path d="M175.421 296.841H109.04C109.509 288.216 111.554 253.443 113.378 245.052C115.437 235.593 125.091 235.711 125.091 235.711L127.984 221.562C127.984 221.562 143.253 228.636 165.207 223.047L166.119 236.453C166.119 236.453 171.33 233.874 176.503 238.46C181.649 243.046 175.421 296.841 175.421 296.841Z" fill="#7F5AE5"/>
<path d="M125.078 234.968C125.078 234.968 130.746 234.33 133.091 237.17C135.436 240.023 146.38 234.812 152.022 237.847C157.663 240.883 166.093 235.724 166.093 235.724L165.936 233.509C165.936 233.509 158.927 236.896 155.696 235.763C152.464 234.629 139.605 237.235 137.351 236.154C135.097 235.072 125.56 232.61 125.56 232.61L125.078 234.968Z" fill="#FFA051"/>
<path d="M141.494 237.417C138.25 237.235 135.215 238.694 132.804 240.792C130.055 243.189 128.205 246.368 126.511 249.56C125.469 251.515 124.466 253.482 123.306 255.371C123.254 255.462 123.398 255.54 123.45 255.449C125.899 251.462 127.632 247.007 130.589 243.333C133.234 240.049 137.117 237.339 141.494 237.574C141.599 237.587 141.599 237.431 141.494 237.417Z" fill="white"/>
<path d="M152.009 237.704C155.044 240.336 156.269 244.296 157.337 248.036C157.363 248.114 157.468 248.114 157.494 248.036C157.832 247.098 158.275 246.212 158.823 245.365C158.875 245.274 158.744 245.195 158.679 245.287C158.132 246.134 157.689 247.033 157.337 247.997C157.39 247.997 157.442 247.997 157.494 247.997C156.425 244.231 155.175 240.245 152.113 237.587C152.035 237.522 151.93 237.639 152.009 237.704Z" fill="white"/>
<path d="M166.054 235.594C165.207 236.167 164.881 237.183 164.659 238.147C164.36 239.424 164.308 240.727 164.477 242.03C164.49 242.134 164.659 242.134 164.646 242.03C164.503 240.909 164.516 239.776 164.725 238.655C164.92 237.613 165.22 236.362 166.145 235.75C166.223 235.672 166.145 235.541 166.054 235.594Z" fill="white"/>
<path d="M131.632 251.775C133.078 248.375 134.576 244.922 137.156 242.199C137.104 242.186 137.065 242.16 137.013 242.147C137.182 243.762 137.56 245.339 138.159 246.863C138.198 246.955 138.355 246.915 138.315 246.824C137.729 245.326 137.338 243.762 137.182 242.16C137.169 242.095 137.091 242.043 137.039 242.108C134.459 244.844 132.948 248.309 131.488 251.723C131.449 251.788 131.593 251.866 131.632 251.775Z" fill="white"/>
<path d="M128.192 238.942C129.378 238.89 130.55 238.929 131.723 239.085C131.71 239.033 131.697 238.981 131.684 238.929C130.759 239.476 129.834 240.023 128.909 240.57C128.817 240.622 128.895 240.766 128.987 240.714C129.912 240.166 130.837 239.619 131.762 239.072C131.84 239.033 131.801 238.929 131.723 238.916C130.55 238.759 129.378 238.707 128.192 238.772C128.088 238.785 128.088 238.942 128.192 238.942Z" fill="white"/>
<path d="M152.53 241.587C152.334 240.805 151.969 240.128 151.422 239.541C151.37 239.489 151.279 239.528 151.279 239.593C151.331 241.743 150.914 243.841 150.028 245.795C149.989 245.886 150.119 245.977 150.172 245.873C151.071 243.893 151.5 241.769 151.435 239.593C151.383 239.606 151.344 239.632 151.292 239.645C151.826 240.219 152.178 240.87 152.36 241.626C152.399 241.73 152.556 241.691 152.53 241.587Z" fill="white"/>
<path d="M166.783 239.268C167.291 242.147 168.36 244.896 169.962 247.345C170.014 247.437 170.158 247.345 170.106 247.267C168.516 244.818 167.448 242.095 166.953 239.229C166.927 239.124 166.77 239.163 166.783 239.268Z" fill="white"/>
<path opacity="0.8" d="M191.681 152.613C191.29 150.685 188.919 145.956 185.153 148.262C181.388 150.568 192.489 156.639 191.681 152.613Z" fill="white"/>
<path d="M231.914 159.402L232.917 155.584L223.432 157.2L232.148 164.066L235.77 161.343L231.914 159.402Z" fill="#E9E9E9"/>
<path d="M235.431 158.411L223.432 157.2L246.167 167.74L235.431 158.411Z" fill="white"/>
<path d="M223.432 157.2L232.917 155.584L236.33 150.281L223.432 157.2Z" fill="white"/>
<path d="M236.461 156.496C243.236 156.626 249.177 162.19 250.401 168.743C251.704 175.753 247.848 183.088 241.894 186.749C238.623 188.755 234.793 189.745 230.963 189.785C229.047 189.811 227.145 189.602 225.282 189.172C223.458 188.755 221.595 188.169 219.992 187.192C218.455 186.254 217.178 184.795 217.139 182.905C217.1 181.042 218.351 179.375 220.331 179.505C222.259 179.622 223.888 181.12 225.047 182.554C226.194 183.974 227.067 185.628 227.614 187.374C228.709 190.827 228.552 194.631 227.002 197.914C225.53 201.028 222.963 203.608 219.849 205.08C219.054 205.458 218.22 205.758 217.374 205.979C217.269 206.005 217.321 206.162 217.413 206.136C220.917 205.211 223.992 202.983 226.012 199.986C228.083 196.924 228.878 193.198 228.292 189.55C227.731 186.006 225.803 182.032 222.611 180.13C221.256 179.323 219.471 178.945 218.155 180.026C217.074 180.925 216.787 182.515 217.087 183.83C217.895 187.492 222.715 188.833 225.868 189.472C229.868 190.28 234.089 190.097 237.946 188.781C245.099 186.345 250.571 179.635 250.805 171.974C251.014 164.939 245.972 158.138 239.014 156.626C238.18 156.444 237.321 156.353 236.461 156.34C236.356 156.34 236.356 156.496 236.461 156.496Z" fill="#FFC290"/>
<path d="M122.029 124.732L122.446 128.211L130.941 129.396L126.759 123.247L125.169 125.853L122.029 124.732Z" fill="#E9E9E9"/>
<path d="M130.941 129.397L123.84 123.364L112.896 122.374L130.941 129.397Z" fill="white"/>
<path d="M130.941 129.396L127.892 118.504L126.759 123.247L130.941 129.396Z" fill="white"/>
<path d="M115.137 106.779C114.134 109.866 114.121 113.241 115.424 116.237C116.61 118.947 118.759 121.214 121.534 122.296C121.626 122.335 121.652 122.192 121.574 122.152C116.636 120.224 114.043 114.791 114.642 109.684C114.994 106.74 116.258 103.938 118.095 101.632C119.736 99.5737 121.912 97.7888 124.531 97.2155C124.909 97.1374 125.287 97.0852 125.678 97.0592C125.691 97.0071 125.717 96.9549 125.73 96.9028C120.675 97.1634 116.61 102.297 115.137 106.779Z" fill="#FFC290"/>
<path d="M131.15 90.4796C136.387 86.8707 143.318 86.8837 148.79 90.0106C148.869 90.0627 148.947 89.9324 148.869 89.8933C143.527 86.8446 136.752 86.7013 131.527 90.0627C129.195 91.561 127.202 93.6847 126.029 96.2123C125.925 96.4338 125.834 96.6683 125.743 96.9028C125.795 96.9028 125.847 96.9028 125.899 96.9028C125.964 96.7204 126.042 96.551 126.107 96.3816C127.176 93.9974 129 91.9519 131.15 90.4796Z" fill="#FFC290"/>
<path d="M131.566 99.6128C132.4 100.824 132.609 102.401 131.475 103.495C130.459 104.472 128.909 104.694 127.658 104.043C125.078 102.688 124.961 99.5085 125.834 97.0591C125.782 97.0591 125.73 97.0591 125.677 97.0722C124.857 99.3913 124.922 102.166 127.019 103.808C127.918 104.512 129.065 104.772 130.159 104.433C131.241 104.108 132.205 103.248 132.387 102.088C132.804 99.4434 129.873 97.4891 127.632 97.0461C127.032 96.9288 126.446 96.8898 125.873 96.9028C125.86 96.9549 125.834 97.007 125.821 97.0591C128.01 96.9419 130.303 97.7757 131.566 99.6128Z" fill="#FFC290"/>
<path d="M125.665 97.0468C125.717 97.0468 125.769 97.0468 125.822 97.0337C125.835 96.9814 125.861 96.929 125.874 96.8767C125.822 96.8767 125.769 96.8767 125.717 96.8767C125.704 96.9421 125.691 96.9945 125.665 97.0468Z" fill="#FFC290"/>
<path d="M157.051 107.472C157.549 104.083 155.207 100.932 151.818 100.433C148.43 99.9347 145.279 102.277 144.78 105.666C144.281 109.054 146.624 112.205 150.012 112.704C153.401 113.203 156.552 110.86 157.051 107.472Z" fill="#FFBF61"/>
<path d="M149.155 104.551C149.273 105.437 148.83 106.713 147.488 108.055C147.488 108.055 147.488 108.055 147.475 108.055C147.475 108.055 147.475 108.055 147.462 108.068C144.022 108.212 142.732 106.309 143.67 105.228C143.722 105.176 143.774 105.111 143.84 105.059C144.726 104.316 146.237 105.28 146.237 105.28C146.237 105.28 146.25 105.176 146.302 105.02C146.328 104.928 146.367 104.811 146.406 104.694C146.602 104.16 147.006 103.43 147.709 103.352C148.491 103.274 149.051 103.743 149.155 104.551Z" fill="#F55A4B"/>
<path d="M156.008 101.541C156.126 102.427 155.683 103.704 154.341 105.046C154.341 105.046 154.341 105.046 154.328 105.046C154.328 105.046 154.328 105.046 154.315 105.059C150.875 105.202 149.585 103.3 150.523 102.218C150.575 102.166 150.628 102.101 150.693 102.049C151.579 101.306 153.09 102.271 153.09 102.271C153.09 102.271 153.103 102.166 153.155 102.01C153.181 101.919 153.22 101.802 153.259 101.684C153.455 101.15 153.859 100.42 154.562 100.342C155.344 100.251 155.904 100.733 156.008 101.541Z" fill="#F55A4B"/>
<path d="M148.452 108.433C148.452 108.433 151.696 107.756 153.963 106.01C153.963 106.01 154.575 108.537 152.243 109.567C149.898 110.596 148.452 108.433 148.452 108.433Z" fill="white"/>
<path d="M252.843 184.725C255.233 181.706 254.723 177.322 251.704 174.933C248.686 172.543 244.302 173.053 241.912 176.072C239.523 179.09 240.033 183.474 243.051 185.864C246.07 188.253 250.454 187.743 252.843 184.725Z" fill="#FFBF61"/>
<path d="M247.535 177.407C246.936 178.215 245.581 178.892 243.444 178.931V178.944C243.444 178.944 243.444 178.944 243.431 178.931H243.418V178.918C240.539 176.339 240.982 173.798 242.584 173.655C242.675 173.642 242.754 173.642 242.845 173.655C244.148 173.746 244.604 175.713 244.604 175.713C244.604 175.713 244.695 175.648 244.864 175.557C244.955 175.505 245.073 175.44 245.203 175.375C245.789 175.101 246.675 174.827 247.301 175.309C247.991 175.857 248.069 176.677 247.535 177.407Z" fill="#F55A4B"/>
<path d="M255.417 180.339C254.818 181.146 253.463 181.824 251.326 181.863V181.876C251.326 181.876 251.326 181.876 251.313 181.863H251.3V181.85C248.421 179.27 248.864 176.73 250.466 176.586C250.558 176.573 250.636 176.573 250.727 176.586C252.03 176.678 252.486 178.645 252.486 178.645C252.486 178.645 252.577 178.58 252.746 178.489C252.838 178.437 252.955 178.371 253.085 178.306C253.672 178.033 254.557 177.759 255.183 178.241C255.873 178.788 255.952 179.609 255.417 180.339Z" fill="#F55A4B"/>
<path d="M243.913 179.987C243.913 179.987 247.066 181.98 250.258 182.345C250.258 182.345 248.76 184.86 246.076 183.869C243.379 182.866 243.913 179.987 243.913 179.987Z" fill="white"/>
<path d="M254.649 293.454C254.662 294.027 254.675 294.588 254.675 295.096C254.675 295.408 254.453 295.669 254.154 295.734C253.385 295.89 252.59 295.877 251.796 295.864C249.242 295.825 246.688 295.773 244.135 295.734C243.874 295.734 243.574 295.708 243.431 295.447C243.34 295.278 243.353 295.083 243.444 294.913C243.627 294.574 243.978 294.431 244.317 294.301C245.972 293.689 247.77 293.063 249.02 291.878C249.06 291.838 249.099 291.799 249.138 291.76C249.398 291.5 249.633 291.2 249.841 290.874C249.998 290.627 250.128 290.353 250.206 290.067C250.232 289.962 250.258 289.871 250.258 289.767C250.258 289.728 250.271 289.689 250.271 289.65L251.17 289.611L251.431 289.598L254.909 289.441C254.675 290.327 254.623 291.356 254.623 292.399C254.623 292.75 254.636 293.102 254.649 293.454Z" fill="#2A2C4B"/>
<path d="M258.896 259.892C258.896 259.892 255.379 267.801 255.287 271.748C255.196 275.774 255.887 289.441 255.887 289.441C255.887 289.441 255.261 290.275 252.708 290.497C250.493 290.692 249.594 290.236 249.594 290.236C249.594 290.236 247.04 275.839 246.636 270.498C246.206 264.661 248.89 247.411 248.89 247.411L259.978 246.095L258.896 259.892Z" fill="#7670E3"/>
<path d="M278.973 290.627C279.208 291.148 279.429 291.656 279.625 292.138C279.742 292.425 279.638 292.751 279.377 292.92C278.726 293.35 277.983 293.649 277.254 293.936C274.869 294.861 272.498 295.799 270.114 296.724C269.866 296.815 269.593 296.92 269.358 296.724C269.215 296.607 269.15 296.412 269.163 296.216C269.202 295.838 269.475 295.565 269.749 295.317C271.052 294.119 272.472 292.868 273.176 291.291C273.202 291.239 273.215 291.187 273.241 291.135C273.384 290.783 273.488 290.431 273.553 290.054C273.606 289.754 273.619 289.454 273.579 289.168C273.566 289.063 273.553 288.972 273.514 288.868C273.501 288.829 273.488 288.79 273.475 288.751L274.296 288.373L274.531 288.269L277.697 286.796C277.814 287.708 278.153 288.686 278.556 289.637C278.7 289.988 278.843 290.314 278.973 290.627Z" fill="#2A2C4B"/>
<path d="M267.912 246.082C267.912 246.082 269.905 266.628 271.325 270.315C272.772 274.067 279.182 287.057 279.182 287.057C279.182 287.057 278.648 288.386 276.55 289.441C274.765 290.34 273.358 290.014 273.358 290.014C273.358 290.014 265.241 277.233 262.844 272.439C260.225 267.201 256.147 250.238 256.147 250.238L260.225 243.046L267.912 246.082Z" fill="#7670E3"/>
<path d="M240.643 225.744C240.643 225.744 245.229 215.816 249.033 214.435C251.209 213.64 256.942 217.914 254.115 222.734C249.646 230.343 240.643 225.744 240.643 225.744Z" fill="#FF6A51"/>
<path d="M268.707 246.316C268.707 246.316 268.889 247.41 259.04 248.023C252.03 248.453 248.877 247.319 248.877 247.319C248.317 244.687 247.783 239.958 246.714 233.483C245.985 229.066 245.841 223.776 245.711 217.861C245.711 217.64 248.03 217.679 248.082 217.496C248.63 215.412 250.063 215.216 254.401 216.05C261.137 217.353 269.345 220.545 269.345 220.545C269.345 220.545 267.99 228.623 267.886 237.326C267.847 240.179 268.368 243.593 268.707 246.316Z" fill="#FF6A51"/>
<path d="M250.48 235.32C250.792 237.626 252.929 239.242 255.235 238.929C255.235 238.929 258.401 239.632 262.245 238.16C274.426 233.483 280.719 229.965 266.661 215.464C262.753 211.425 252.043 212.324 248.069 214.995C246.141 216.298 254.284 219.151 255.965 220.754L264.733 229.105L254.089 230.564C251.782 230.877 250.167 233.014 250.48 235.32Z" fill="#FF6A51"/>
<path d="M251.222 202.54L249.685 201.237C249.685 201.237 248.604 204.989 249.242 206.005C249.88 207.022 251.222 202.54 251.222 202.54Z" fill="#262F36"/>
<path d="M255.548 210.539C256.72 211.204 258.023 209.81 259.847 205.106C261.463 200.937 257.424 200.103 257.424 200.103C256.89 200.234 253.984 209.666 255.548 210.539Z" fill="#262F36"/>
<path d="M253.75 215.79C256.629 215.829 257.411 214.37 257.202 213.484C256.355 209.979 256.095 208.116 256.095 208.103L255.027 208.702L254.766 208.819L252.538 209.875C252.538 209.875 252.538 210.031 252.551 210.279C252.551 210.461 252.551 210.709 252.551 210.969C252.551 211.204 252.538 211.464 252.538 211.725C252.538 211.751 252.538 211.764 252.538 211.79C252.525 212.129 252.512 212.467 252.473 212.767C252.447 213.093 252.395 213.392 252.343 213.601C252.33 213.64 252.317 213.666 252.317 213.705C252.108 214.304 250.988 215.764 253.75 215.79Z" fill="white"/>
<path d="M252.33 213.627C253.268 213.419 255.092 211.946 255.209 209.927C255.209 209.901 254.896 210.07 254.896 210.044C254.896 210.044 254.792 210.122 254.636 210.253C254.154 210.63 253.124 211.399 252.525 211.751C252.525 211.777 252.525 211.79 252.525 211.816C252.512 212.155 252.499 212.493 252.46 212.793C252.434 213.119 252.382 213.405 252.33 213.627Z" fill="#D3D3D3"/>
<path d="M251.34 212.077C255.626 212.689 256.421 207.595 256.421 207.595C257.88 199.595 250.74 200.129 249.516 204.077C248.161 208.402 247.118 211.464 251.34 212.077Z" fill="white"/>
<path d="M253.607 211.946C254.597 211.347 255.274 210.461 255.847 209.471C255.874 209.432 255.808 209.406 255.782 209.445C255.209 210.422 254.545 211.295 253.567 211.894C253.528 211.907 253.567 211.959 253.607 211.946Z" fill="#D3D3D3"/>
<path d="M250.883 208.09C250.831 208.207 250.727 208.389 250.805 208.52C250.87 208.637 251.066 208.637 251.183 208.689C251.235 208.715 251.274 208.624 251.222 208.598C251.144 208.572 251.027 208.559 250.962 208.52C250.805 208.416 250.949 208.194 251.001 208.077C251.092 207.842 251.209 207.621 251.313 207.386C251.457 207.048 251.6 206.683 251.496 206.318C251.483 206.253 251.392 206.292 251.405 206.357C251.561 206.93 251.092 207.569 250.883 208.09Z" fill="#D3D3D3"/>
<path d="M253.02 206.422C253.502 206.578 253.906 206.67 253.984 206.422C254.063 206.188 253.763 205.771 253.294 205.614C252.812 205.458 252.33 205.601 252.252 205.836C252.173 206.07 252.551 206.253 253.02 206.422Z" fill="#D3D3D3"/>
<path d="M250.362 205.901C250.897 205.979 251.34 205.979 251.379 205.732C251.418 205.484 251.014 205.132 250.48 205.067C249.946 204.989 249.463 205.224 249.437 205.471C249.385 205.719 249.815 205.836 250.362 205.901Z" fill="#D3D3D3"/>
<path d="M252.538 207.816C252.694 207.842 252.851 207.699 252.89 207.478C252.929 207.256 252.851 207.061 252.694 207.022C252.538 206.996 252.382 207.139 252.343 207.36C252.304 207.582 252.382 207.79 252.538 207.816Z" fill="#262F36"/>
<path d="M250.506 207.256C250.662 207.282 250.818 207.139 250.857 206.917C250.896 206.696 250.818 206.5 250.662 206.461C250.506 206.435 250.349 206.579 250.31 206.8C250.271 207.022 250.362 207.217 250.506 207.256Z" fill="#262F36"/>
<path d="M249.698 202.878C249.88 203.074 250.167 203.087 250.427 203.1C251.756 203.165 253.085 203.295 254.388 203.504C254.662 203.543 254.987 203.621 255.105 203.895C255.17 204.025 255.17 204.168 255.183 204.312C255.209 205.263 254.987 206.631 255.365 206.722L256.056 207.543C256.421 207.712 256.89 207.36 257.02 206.93C257.15 206.5 257.046 206.044 256.929 205.64C256.89 205.523 256.851 205.406 256.851 205.289C256.851 205.08 256.942 204.872 257.033 204.663C257.476 203.673 257.828 202.631 258.088 201.589C258.167 201.263 258.232 200.898 258.101 200.624C258.023 200.455 257.88 200.351 257.737 200.247C257.307 199.947 256.825 199.751 256.303 199.686C255.965 199.647 255.613 199.647 255.326 199.465C255.157 199.361 255.04 199.204 254.857 199.113C254.466 198.918 253.984 199.178 253.554 199.322C253.163 199.452 252.734 199.491 252.395 199.282C252.238 199.191 252.121 199.048 251.965 198.97C251.561 198.748 251.014 198.918 250.649 199.256C250.284 199.608 250.063 200.09 249.893 200.585C249.75 201.015 249.633 201.445 249.555 201.888C249.489 202.214 249.463 202.631 249.698 202.878Z" fill="#262F36"/>
<path d="M256.447 208.65C257.124 208.272 257.424 207.543 257.124 207.008C256.825 206.474 256.043 206.344 255.365 206.722C254.688 207.1 254.388 207.829 254.688 208.363C254.975 208.898 255.769 209.028 256.447 208.65Z" fill="white"/>
<path d="M255.157 208.806C255.105 208.793 255.092 208.884 255.144 208.897C255.626 208.976 256.173 208.871 256.603 208.637C256.981 208.428 257.163 208.038 257.268 207.621C257.281 207.569 257.19 207.556 257.177 207.608C257.072 208.051 256.864 208.428 256.434 208.611C256.043 208.78 255.6 208.871 255.157 208.806Z" fill="#D3D3D3"/>
<path d="M255.639 207.373C255.548 207.438 255.405 207.556 255.405 207.686C255.405 207.738 255.431 207.764 255.444 207.803C255.522 207.934 255.535 208.064 255.457 208.207C255.431 208.259 255.522 208.298 255.548 208.246C255.6 208.142 255.626 208.012 255.587 207.895C255.574 207.855 255.548 207.816 255.535 207.79C255.483 207.634 255.574 207.543 255.678 207.465C255.743 207.412 255.691 207.334 255.639 207.373Z" fill="#D3D3D3"/>
<path d="M255.235 206.865C255.326 206.774 255.43 206.709 255.561 206.67C255.6 206.657 255.574 206.591 255.535 206.604C255.404 206.657 255.287 206.722 255.183 206.826C255.157 206.852 255.209 206.891 255.235 206.865Z" fill="#D3D3D3"/>
<path d="M252.343 209.249C252.291 209.406 252.212 209.601 252.108 209.718C251.965 209.888 251.743 210.031 251.418 210.044C251.053 210.057 250.805 209.94 250.61 209.784C250.506 209.692 250.401 209.536 250.323 209.406C250.297 209.354 250.297 209.302 250.323 209.249C250.349 209.197 250.414 209.171 250.48 209.171C250.493 209.171 250.519 209.171 250.532 209.184C250.545 209.184 250.545 209.184 250.558 209.184C250.584 209.184 250.61 209.197 250.636 209.197C250.649 209.197 250.662 209.197 250.662 209.197C250.753 209.21 250.844 209.21 250.949 209.223C250.988 209.223 251.014 209.223 251.053 209.223C251.066 209.223 251.092 209.223 251.105 209.223C251.118 209.223 251.144 209.223 251.157 209.223C251.17 209.223 251.196 209.223 251.209 209.223C251.222 209.223 251.248 209.223 251.261 209.223C251.287 209.223 251.313 209.223 251.34 209.223C251.366 209.223 251.379 209.223 251.405 209.223C251.457 209.223 251.509 209.21 251.548 209.21C251.561 209.21 251.587 209.21 251.6 209.197C251.665 209.184 251.73 209.171 251.809 209.158C251.835 209.158 251.874 209.145 251.9 209.145C251.926 209.145 251.952 209.132 251.978 209.132C251.991 209.132 252.004 209.132 252.004 209.119C252.03 209.119 252.043 209.106 252.069 209.106C252.095 209.093 252.121 209.093 252.16 209.08C252.212 209.067 252.265 209.08 252.304 209.119C252.343 209.158 252.356 209.21 252.343 209.249Z" fill="#262F36"/>
<path d="M252.317 209.132C252.043 209.341 251.613 209.575 251.183 209.523C250.844 209.471 250.545 209.367 250.336 209.276C250.362 209.223 250.427 209.197 250.493 209.197C250.506 209.197 250.532 209.197 250.545 209.21C250.558 209.21 250.558 209.21 250.571 209.21C250.597 209.21 250.623 209.224 250.649 209.224C250.662 209.224 250.675 209.224 250.675 209.224C250.766 209.237 250.857 209.237 250.962 209.25C251.001 209.25 251.027 209.25 251.066 209.25C251.079 209.25 251.105 209.25 251.118 209.25C251.131 209.25 251.157 209.25 251.17 209.25C251.183 209.25 251.209 209.25 251.222 209.25C251.235 209.25 251.261 209.25 251.274 209.25C251.3 209.25 251.326 209.25 251.352 209.25C251.378 209.25 251.391 209.25 251.418 209.25C251.47 209.25 251.522 209.237 251.561 209.237C251.574 209.237 251.6 209.237 251.613 209.224C251.678 209.21 251.743 209.197 251.821 209.184C251.848 209.184 251.887 209.171 251.913 209.171C251.939 209.171 251.965 209.158 251.991 209.158C252.004 209.158 252.017 209.158 252.017 209.145C252.043 209.145 252.056 209.132 252.082 209.132C252.108 209.119 252.134 209.119 252.173 209.106C252.238 209.067 252.29 209.093 252.317 209.132Z" fill="white"/>
<path d="M252.108 209.731C251.965 209.901 251.743 210.044 251.418 210.057C251.053 210.07 250.805 209.953 250.61 209.797C250.766 209.718 251.066 209.614 251.405 209.653C251.418 209.653 251.9 209.445 252.108 209.731Z" fill="#E55A4D"/>
<path d="M261.033 237.9C261.254 237.978 261.45 238.004 261.619 237.965C261.658 237.952 261.71 237.939 261.749 237.913C261.997 237.782 262.101 237.47 262.101 237.053C262.088 236.284 261.671 235.137 260.942 233.965C260.694 233.574 260.434 233.222 260.173 232.91C259.209 231.75 258.18 231.086 257.632 231.385C256.942 231.763 257.281 233.535 258.427 235.333C259.248 236.649 260.264 237.613 261.033 237.9Z" fill="#262F36"/>
<path d="M258.062 231.216C259.235 230.877 260.368 230.473 261.489 230.03C263.469 229.248 265.41 228.349 267.339 227.424C267.391 227.398 267.365 227.307 267.3 227.333C264.277 228.779 261.241 230.187 258.023 231.125C257.971 231.138 258.01 231.229 258.062 231.216Z" fill="white"/>
<path d="M266.466 227.711C266.505 227.763 266.583 227.698 266.544 227.659C265.997 226.943 265.45 226.226 264.915 225.509C264.876 225.457 264.798 225.522 264.837 225.561C265.385 226.278 265.919 226.995 266.466 227.711Z" fill="white"/>
<path d="M249.242 219.698L259 220.154C260.095 220.207 260.642 221.483 259.938 222.317L253.646 229.783C253.372 230.108 253.268 230.564 253.385 230.981L255.965 240.401C256.251 241.456 255.209 242.381 254.206 241.965L245.164 238.29C244.76 238.121 244.304 238.173 243.952 238.408L235.796 243.775C234.884 244.375 233.686 243.671 233.764 242.577L234.467 232.831C234.493 232.401 234.311 231.985 233.972 231.711L226.35 225.613C225.503 224.936 225.803 223.568 226.858 223.307L236.343 220.962C236.76 220.858 237.112 220.558 237.255 220.154L240.708 211.021C241.099 210.005 242.48 209.862 243.053 210.787L248.213 219.086C248.421 219.438 248.812 219.672 249.242 219.698Z" fill="#FFB041"/>
<path d="M260.121 234.173C260.303 233.821 259.118 232.388 258.297 231.958C257.476 231.528 255.822 230.629 255.665 230.799C254.831 231.698 256.812 232.818 257.633 233.248C258.453 233.678 259.939 234.525 260.121 234.173Z" fill="white"/>
<path d="M253.724 235.698C255.378 235.437 255.821 235.046 255.769 234.655C255.704 234.265 255.17 234.017 253.515 234.265C251.861 234.525 249.333 234.968 249.424 235.619C249.502 236.18 252.069 235.945 253.724 235.698Z" fill="white"/>
<path d="M254.714 237.079C256.525 236.805 257.007 236.401 256.942 235.997C256.877 235.606 256.304 235.359 254.493 235.646C252.682 235.919 249.932 236.414 250.024 237.066C250.115 237.626 252.903 237.352 254.714 237.079Z" fill="white"/>
<path d="M255.965 238.095C257.632 237.73 258.075 237.352 257.997 237.013C257.919 236.675 257.372 236.518 255.704 236.883C254.036 237.248 251.483 237.86 251.613 238.407C251.704 238.89 254.284 238.46 255.965 238.095Z" fill="white"/>
<path d="M255.926 234.173C257.763 234.069 258.284 233.717 258.258 233.313C258.232 232.91 257.672 232.623 255.847 232.727C254.01 232.831 251.222 233.066 251.261 233.717C251.287 234.291 254.089 234.291 255.926 234.173Z" fill="white"/>
<path d="M255.678 238.551L258.805 238.277C260.121 238.095 261.033 236.805 260.851 235.398L260.772 234.825C260.629 233.743 259.496 232.48 258.44 232.037L254.102 233.743C253.567 233.822 253.19 234.343 253.268 234.929L254.453 237.326C254.519 237.887 255.131 238.629 255.678 238.551Z" fill="white"/>
<path d="M253.554 235.802C253.828 235.789 254.101 235.776 254.388 235.763C254.453 235.763 254.453 235.658 254.375 235.658C254.102 235.671 253.828 235.685 253.541 235.698C253.489 235.698 253.489 235.802 253.554 235.802Z" fill="#D3D3D3"/>
<path d="M254.089 237.274C254.258 237.248 254.414 237.222 254.584 237.196C254.649 237.196 254.649 237.092 254.571 237.092C254.401 237.105 254.232 237.131 254.076 237.17C254.024 237.183 254.024 237.287 254.089 237.274Z" fill="#D3D3D3"/>
<path d="M253.346 234.304C253.489 234.317 253.633 234.317 253.789 234.304C253.854 234.304 253.854 234.199 253.776 234.199C253.633 234.212 253.502 234.212 253.359 234.199C253.307 234.186 253.281 234.291 253.346 234.304Z" fill="#D3D3D3"/>
<path d="M258.753 238.225C259.704 237.939 257.906 237.444 257.841 237.222C257.776 237.001 257.242 237.574 256.277 237.861C255.326 238.147 253.867 238.629 253.984 239.007C254.089 239.32 257.802 238.512 258.753 238.225Z" fill="white"/>
<path d="M254.844 238.421C254.975 238.395 255.118 238.395 255.248 238.434C255.313 238.447 255.326 238.356 255.274 238.33C255.131 238.29 254.988 238.29 254.844 238.317C254.779 238.33 254.779 238.434 254.844 238.421Z" fill="#D3D3D3"/>
<path d="M261.749 237.952C263.013 237.574 264.251 237.157 265.489 236.701C266.296 236.401 267.091 236.075 267.925 235.841C267.99 235.828 267.964 235.724 267.899 235.737C267.078 235.971 266.27 236.297 265.463 236.597C264.225 237.053 262.987 237.483 261.723 237.847C261.658 237.873 261.684 237.978 261.749 237.952Z" fill="white"/>
<path d="M256.238 253.508C256.746 254.629 257.294 255.736 257.724 256.883C258.14 258.003 258.44 259.163 258.714 260.322C258.727 260.4 258.844 260.361 258.818 260.296C258.544 259.097 258.232 257.899 257.789 256.752C257.359 255.632 256.838 254.55 256.33 253.456C256.303 253.391 256.212 253.443 256.238 253.508Z" fill="white"/>
<path d="M261.906 250.186C262.922 251.606 264.511 252.492 266.257 252.57C266.335 252.57 266.335 252.453 266.257 252.453C264.55 252.374 262.987 251.514 261.997 250.12C261.958 250.068 261.854 250.12 261.906 250.186Z" fill="white"/>
<path d="M266.062 252.57C266.531 255.097 267 257.625 267.469 260.14C267.925 262.563 268.342 264.999 268.902 267.397C269.971 271.983 271.821 276.321 273.97 280.49C275.208 282.888 276.537 285.246 277.866 287.591C277.905 287.656 277.996 287.591 277.97 287.539C275.625 283.396 273.28 279.253 271.456 274.849C270.557 272.686 269.788 270.471 269.228 268.191C268.629 265.781 268.199 263.319 267.743 260.869C267.222 258.094 266.7 255.319 266.192 252.531C266.166 252.466 266.049 252.492 266.062 252.57Z" fill="white"/>
<path d="M273.124 289.506C274.361 289.246 275.573 288.881 276.732 288.386C277.618 288.008 278.465 287.539 279 286.705C279.039 286.64 278.934 286.588 278.895 286.653C278.296 287.578 277.293 288.047 276.303 288.438C275.26 288.842 274.192 289.154 273.097 289.389C273.019 289.402 273.045 289.519 273.124 289.506Z" fill="white"/>
<path d="M231.249 222.734C230.793 221.77 231.067 221.549 231.458 221.366C231.849 221.184 232.187 221.093 232.643 222.07C233.099 223.034 233.516 224.219 232.943 224.493C232.409 224.754 231.705 223.711 231.249 222.734Z" fill="white"/>
<path d="M232.474 222.031C231.94 220.897 232.213 220.676 232.591 220.493C232.982 220.311 233.321 220.233 233.868 221.379C234.402 222.513 234.91 223.894 234.337 224.167C233.803 224.402 233.008 223.164 232.474 222.031Z" fill="white"/>
<path d="M233.49 221.47C232.956 220.337 233.23 220.115 233.607 219.933C233.998 219.751 234.337 219.672 234.884 220.819C235.418 221.952 235.927 223.334 235.353 223.607C234.819 223.855 234.024 222.604 233.49 221.47Z" fill="white"/>
<path d="M234.663 221.027C234.155 219.959 234.428 219.738 234.819 219.555C235.21 219.373 235.549 219.295 236.057 220.363C236.565 221.431 237.034 222.721 236.461 222.995C235.926 223.255 235.171 222.096 234.663 221.027Z" fill="white"/>
<path d="M232.122 221.366C232.474 221.913 232.787 222.474 233.086 223.034C233.125 223.112 233.243 223.047 233.203 222.969C232.904 222.395 232.578 221.835 232.239 221.301C232.187 221.223 232.083 221.288 232.122 221.366Z" fill="#D3D3D3"/>
<path d="M233.073 220.428C233.66 221.301 234.129 222.239 234.493 223.229C234.519 223.308 234.65 223.268 234.624 223.19C234.259 222.187 233.777 221.249 233.191 220.363C233.151 220.285 233.034 220.363 233.073 220.428Z" fill="#D3D3D3"/>
<path d="M234.363 220.05C234.884 220.871 235.262 221.757 235.497 222.708C235.523 222.786 235.64 222.76 235.627 222.669C235.392 221.705 235.002 220.819 234.48 219.985C234.428 219.907 234.311 219.972 234.363 220.05Z" fill="#D3D3D3"/>
<path d="M243.835 215.347C244.643 215.894 246.714 219.659 247.978 220.389C249.711 221.405 256.147 220.988 256.525 221.796C257.189 223.242 249.046 224.78 246.102 223.203C243.301 221.731 241.451 213.744 243.835 215.347Z" fill="#FFC06E"/>
<path d="M120.583 189.55C115.671 195.009 105.34 199.1 89.7052 197.941L89.6791 197.993C89.6661 197.98 89.64 197.954 89.627 197.941C89.601 197.941 89.5749 197.941 89.5488 197.941L89.5749 197.888C70.2663 177.121 75.2303 158.88 86.9822 158.919C87.6076 158.919 88.259 158.972 88.9235 159.089C98.3693 160.639 100.402 175.349 100.402 175.349C100.402 175.349 101.144 174.906 102.382 174.332C103.112 173.994 103.998 173.603 105.001 173.238C109.444 171.596 116.101 170.189 120.388 174.215C125.013 178.515 125.026 184.599 120.583 189.55Z" fill="#FF6A51"/>
<path d="M78.0706 204.598C77.3149 204.846 76.5462 205.119 75.7514 205.067C72.3379 204.872 69.7843 207.868 70.3576 209.953C70.4878 210.409 70.2012 210.904 69.8494 211.256C69.5758 211.517 69.2241 211.699 68.9374 211.959C68.2208 212.598 68.0645 213.666 68.5726 214.435C68.7811 214.761 69.1198 215.086 69.0286 215.451C68.9895 215.634 68.8332 215.79 68.7029 215.946C68.0906 216.689 67.8821 217.783 68.4554 218.539C68.8202 219.008 69.4065 219.282 69.9928 219.49C72.1295 220.246 74.5267 220.324 76.8068 219.972C79.0868 219.62 81.2626 218.852 83.3602 217.953C84.7803 217.34 86.1875 216.663 87.3861 215.751C87.9072 215.36 88.4023 214.904 88.6759 214.357C88.9495 213.797 88.9495 213.106 88.5456 212.624C88.1678 212.181 87.5034 211.959 87.2298 211.464C86.9561 210.995 87.1255 210.409 87.0083 209.888C86.9171 209.419 86.5913 209.002 86.1353 208.754C85.536 208.416 84.6892 208.364 84.3243 207.816C83.9465 207.269 84.2462 206.474 83.7771 205.992C83.0736 205.289 81.5232 206.044 80.7675 205.38C80.5721 205.211 80.4809 204.976 80.3115 204.794C79.8034 204.273 78.8393 204.351 78.0706 204.598Z" fill="#262F36"/>
<path d="M69.0808 255.553C69.0808 255.553 63.7911 256.218 63.5436 257.482C63.2961 258.772 64.2341 261.325 70.1101 261.078C76.4811 260.804 82.0053 261.82 89.1581 264.661L85.0019 256.648L69.0808 255.553Z" fill="#FFA051"/>
<path d="M87.7901 259.892C87.3341 263.814 86.6045 268.739 85.471 273.403C83.0476 283.383 83.5036 294.197 83.5036 294.197H78.5397C78.5397 294.197 76.0512 277.637 77.5886 271.136C78.4745 267.371 78.1618 262.772 78.7872 257.795C79.2302 254.173 88.3112 255.423 87.7901 259.892Z" fill="white"/>
<path d="M80.7284 253.638C80.7284 253.638 76.429 270.967 71.7777 274.054L67.0222 266.732C67.0222 266.732 68.8332 254.55 69.5889 253.143C70.3445 251.762 80.6893 251.02 80.7284 253.638Z" fill="white"/>
<path d="M89.8356 262.303C89.8356 262.342 89.8226 262.381 89.8226 262.42C89.7183 263.319 89.5099 264.087 89.1711 264.674C89.0018 264.96 88.194 265.468 86.9823 265.807C84.8977 266.381 81.6275 266.394 78.3312 263.801C78.1488 263.657 77.9534 263.501 77.771 263.332C77.1717 262.811 76.5854 262.198 75.9991 261.482C75.9209 261.391 75.8427 261.299 75.7646 261.208C73.5106 258.576 70.8918 257.313 68.6639 256.817C66.1363 256.257 64.1039 256.687 63.6609 257.247C63.8693 256.948 65.3676 254.811 66.5663 252.479L66.6575 252.309C67.1526 251.332 67.6086 250.329 67.8822 249.417C69.2893 244.753 70.4228 242.799 71.439 241.04C71.4521 241.027 71.4521 241.014 71.4651 240.988C72.0644 239.945 72.6116 238.968 73.1588 237.522C73.3933 236.883 73.6279 236.167 73.8754 235.307C75.1131 230.838 85.3537 229.626 85.7446 236.128C85.7837 236.714 85.8358 237.326 85.9139 237.952C86.2527 240.74 86.9432 243.997 87.6598 247.267C87.6728 247.306 87.6728 247.346 87.6859 247.385C88.9106 253.026 90.2004 258.733 89.8356 262.303Z" fill="#FFBF61"/>
<path d="M84.6762 291.969C86.0312 293.363 88.0246 294.119 89.8616 294.887C90.2395 295.044 90.6434 295.213 90.8258 295.604C90.917 295.799 90.93 296.034 90.8127 296.216C90.6434 296.503 90.3046 296.516 90.018 296.503C87.1386 296.451 84.598 296.803 81.393 296.347C80.5201 296.216 79.608 296.307 78.7481 296.112C78.4094 296.034 78.1749 295.721 78.1879 295.382C78.2009 294.796 78.2531 294.171 78.2791 293.532C78.3052 293.141 78.3312 292.738 78.3443 292.334C78.3833 291.161 78.1358 288.92 77.9143 287.487L82.0574 289.311L82.3441 289.337L83.2691 286.106C83.2691 286.145 83.3603 289.506 83.3733 289.559C83.3864 289.676 83.3994 289.793 83.4255 289.897C83.5036 290.223 83.6339 290.536 83.8033 290.822C84.0117 291.2 84.2723 291.539 84.559 291.852C84.598 291.878 84.6371 291.93 84.6762 291.969Z" fill="white"/>
<path d="M90.8128 296.008C91.0343 295.956 91.1646 296.281 90.9431 296.347C88.8976 296.868 86.8 296.907 84.7023 296.803C82.5396 296.685 80.3898 296.503 78.2271 296.464C77.9925 296.464 77.9665 296.099 78.188 296.112C80.2465 296.151 82.292 296.307 84.3506 296.438C86.5133 296.542 88.7022 296.542 90.8128 296.008Z" fill="#353659"/>
<path d="M78.3832 292.75C81.8489 294.457 82.2658 296.438 82.2658 296.438L78.5396 296.281C77.5754 295.2 78.3832 292.75 78.3832 292.75Z" fill="#353659"/>
<path d="M87.9203 294.002C88.5847 294.223 89.171 294.614 90.3436 295.044C91.2687 295.383 91.8289 296.164 89.5749 296.464C87.321 296.764 84.9106 296.568 84.9106 296.568C84.9106 296.568 86.7998 293.624 87.9203 294.002Z" fill="#353659"/>
<path d="M51.8178 255.358C55.4267 256.726 65.6673 260.804 69.3674 264.1C73.8884 268.139 74.0838 277.52 68.273 272.908C66.879 271.8 65.4849 270.628 64.1429 269.429C59.8695 265.56 54.8665 262.433 51.6614 260.609C51.3748 260.439 50.7494 260.296 49.4986 260.101C47.401 259.788 44.9386 259.814 43.3752 260.101C43.0103 260.166 45.7855 256.765 48.8081 255.319C49.5377 254.967 51.3748 254.824 51.909 254.238C52.1174 253.99 51.6093 255.228 51.8178 255.358Z" fill="white"/>
<path d="M42.6585 260.075C42.5282 260.231 42.2546 260.049 42.3849 259.892C43.6356 258.446 45.1861 257.326 46.8016 256.309C48.4693 255.28 50.163 254.303 51.8047 253.208C51.974 253.091 52.1955 253.339 52.0131 253.456C50.4627 254.498 48.8471 255.436 47.2576 256.414C45.5769 257.443 43.9614 258.576 42.6585 260.075Z" fill="#353659"/>
<path d="M53.6157 256.062C50.1501 256.583 48.8081 255.319 48.8081 255.319L51.6614 253.495C52.9382 253.808 53.6157 256.062 53.6157 256.062Z" fill="#353659"/>
<path d="M45.8504 260.075C45.2511 260.257 44.5997 260.27 43.5052 260.557C42.6454 260.778 41.8115 260.491 43.3359 259.097C44.8602 257.703 46.7494 256.609 46.7494 256.609C46.7494 256.609 46.8927 259.762 45.8504 260.075Z" fill="#353659"/>
<path d="M67.2828 262.576C68.6247 264.257 69.6279 266.185 70.2403 268.257C70.2794 268.4 70.5009 268.335 70.4618 268.191C69.8364 266.081 68.8201 264.126 67.4521 262.42C67.3609 262.302 67.1916 262.459 67.2828 262.576Z" fill="#FC9171"/>
<path d="M72.429 219.959C67.895 222.239 63.2568 226.356 60.1429 229.248C58.7098 230.577 53.8892 237.743 53.8892 237.743L57.0421 241.339C57.0421 241.339 62.1103 235.463 65.2111 233.144C67.8169 231.203 71.1652 229.665 74.7481 228.31C78.5265 226.89 79.5167 220.272 79.5167 220.272C79.5167 220.272 74.0055 219.164 72.429 219.959Z" fill="#7670E3"/>
<path d="M57.0423 241.339C56.9771 241.457 56.8078 241.457 56.5863 241.352C56.5211 241.326 56.456 241.287 56.3778 241.235C56.0261 241.027 55.5831 240.636 55.1401 240.115C54.7623 239.685 54.4365 239.229 54.2151 238.838C54.1239 238.668 54.0457 238.512 53.9805 238.369C53.9415 238.291 53.9154 238.199 53.9024 238.134C53.8763 238.043 53.8633 237.952 53.8633 237.887C53.8633 237.848 53.8633 237.821 53.8763 237.795C53.8763 237.769 53.8893 237.756 53.9024 237.73C53.9675 237.613 54.1108 237.613 54.3193 237.691C54.4626 237.743 54.6189 237.848 54.8014 237.991C55.101 238.212 55.4528 238.551 55.7915 238.942C55.9739 239.15 56.1563 239.372 56.2997 239.58C56.5211 239.88 56.7035 240.167 56.8338 240.427C56.925 240.61 57.0032 240.779 57.0423 240.922C57.0814 241.118 57.0814 241.248 57.0423 241.339Z" fill="#262F36"/>
<path d="M82.1616 217.966C82.1616 217.966 88.233 216.116 91.1775 211.79C92.2719 210.174 93.9526 201.25 93.9526 201.25L98.7081 200.755C98.7081 200.755 98.7472 211.673 95.9721 215.23C91.868 220.519 86.7217 227.06 86.7217 227.06L82.1616 217.966Z" fill="#7670E3"/>
<path d="M98.3694 200.52C98.1739 200.455 97.9134 200.403 97.6137 200.377C97.1577 200.338 96.6105 200.338 96.0372 200.39C95.2164 200.468 94.552 200.651 94.2002 200.859C93.9917 200.989 93.8875 201.12 93.9526 201.237C93.9917 201.328 94.109 201.393 94.2783 201.458C94.6171 201.576 95.1643 201.641 95.8027 201.628C96.0633 201.628 96.3369 201.615 96.6235 201.576C97.1577 201.524 97.6137 201.432 97.9785 201.315C98.2 201.25 98.3824 201.172 98.4997 201.094C98.6821 200.976 98.7602 200.859 98.7081 200.742C98.6951 200.729 98.6821 200.703 98.669 200.69C98.6039 200.625 98.4997 200.572 98.3694 200.52Z" fill="#262F36"/>
<path d="M97.0925 194.696C97.0534 194.696 97.0143 194.722 96.9882 194.735C96.7016 194.944 96.5843 195.309 96.5583 195.661C96.5322 195.947 96.5453 196.247 96.5322 196.533C96.5322 196.546 96.5322 196.546 96.5322 196.559C96.2847 196.833 95.972 197.042 95.6202 197.185C95.3987 197.276 95.1642 197.328 94.9558 197.432C94.5779 197.602 94.2913 197.928 94.1219 198.305C94.0177 198.54 93.9656 198.8 93.9656 199.048C93.9656 199.23 94.0047 199.413 94.0828 199.569C94.7343 200.637 95.529 200.52 96.3498 200.181C96.3759 200.168 96.3889 200.168 96.415 200.155C96.6495 200.051 96.884 199.947 97.1185 199.843C97.6136 199.608 98.1087 199.348 98.5908 199.074C99.0598 198.813 99.5288 198.527 99.8936 198.123C100.011 197.993 100.115 197.862 100.206 197.719C100.767 196.833 100.884 195.687 100.806 194.631C100.806 194.553 100.78 194.449 100.701 194.436C100.662 194.423 100.636 194.436 100.597 194.449C100.298 194.579 100.115 194.879 100.011 195.191C99.9067 195.504 99.8676 195.83 99.7503 196.13C99.6982 196.26 99.6461 196.377 99.5679 196.494C99.6461 195.791 99.581 195.048 99.4376 194.345C99.4246 194.253 99.3855 194.149 99.2943 194.149C99.2552 194.149 99.2161 194.162 99.1901 194.188C98.8904 194.371 98.7341 194.722 98.6689 195.074C98.6429 195.218 98.6299 195.361 98.6038 195.504C98.5387 195.152 98.4475 194.801 98.3432 194.462C98.3172 194.384 98.2651 194.279 98.1739 194.279C98.1348 194.279 98.0957 194.306 98.0696 194.319C97.783 194.527 97.6657 194.892 97.6397 195.244C97.6136 195.595 97.6397 195.947 97.6006 196.299C97.6006 196.312 97.6006 196.338 97.5876 196.351C97.5354 195.856 97.4182 195.361 97.2749 194.892C97.2358 194.801 97.1837 194.696 97.0925 194.696Z" fill="white"/>
<path d="M94.2782 201.471C94.6169 201.589 95.1641 201.654 95.8025 201.641C96.0631 201.641 96.3367 201.628 96.6233 201.589C97.1575 201.537 97.6135 201.445 97.9783 201.328L97.6266 200.364L97.379 199.713L93.9785 199.048L94.213 200.859L94.2782 201.471Z" fill="white"/>
<path d="M95.7504 200.051C95.6983 200.064 95.7113 200.142 95.7765 200.129C96.3497 200.064 96.923 199.973 97.4442 199.739C97.4963 199.713 97.4572 199.647 97.4051 199.66C96.8709 199.908 96.3107 199.986 95.7504 200.051Z" fill="#FC9171"/>
<path d="M96.5063 196.286C96.4803 196.546 96.5324 196.794 96.6496 197.016C96.6757 197.068 96.7539 197.029 96.7278 196.976C96.6106 196.768 96.5715 196.533 96.5975 196.286C96.5975 196.234 96.5063 196.234 96.5063 196.286Z" fill="#FC9171"/>
<path d="M97.5616 196.208C97.5876 196.468 97.6267 196.729 97.7049 196.976C97.7179 197.029 97.8091 197.003 97.7831 196.95C97.7049 196.703 97.6658 196.455 97.6397 196.208C97.6397 196.156 97.5485 196.156 97.5616 196.208Z" fill="#FC9171"/>
<path d="M98.5518 195.374C98.5648 195.83 98.656 196.286 98.7993 196.716C98.8123 196.768 98.9035 196.742 98.8775 196.69C98.7342 196.26 98.643 195.817 98.6299 195.361C98.6299 195.322 98.5518 195.309 98.5518 195.374Z" fill="#FC9171"/>
<path d="M56.8337 240.453C56.508 240.74 56.4689 240.961 56.3777 241.248C56.3125 241.443 56.2343 241.665 56.0259 241.952C55.5699 242.59 53.4462 244.714 53.2768 244.518C53.1465 244.375 53.2899 243.841 53.5635 243.32C53.6416 243.163 53.6547 243.059 53.6416 242.994C52.5733 243.815 50.9707 244.909 50.7362 244.622C50.5278 244.362 51.4137 243.541 52.3127 242.798L52.2736 242.759C51.075 243.554 49.3943 244.531 49.1597 244.179C48.8992 243.802 50.2542 242.772 51.4007 241.978L51.3616 241.939C51.3616 241.939 51.3486 241.952 51.3355 241.952C50.2411 242.694 48.4953 243.723 48.2477 243.359C48.2217 243.333 48.2217 243.294 48.2217 243.254C48.2217 242.824 49.4855 241.86 50.4887 241.17C50.8014 240.857 50.6841 240.792 50.5408 240.805C50.4756 240.818 50.3975 240.831 50.3323 240.844C49.6418 240.974 49.0816 240.961 48.9773 240.753C48.7298 240.297 50.5799 239.828 51.8437 239.124C52.5081 238.76 53.1074 238.733 53.9934 238.369C54.2409 238.264 54.5015 238.147 54.8012 237.978C55.1008 238.199 55.4526 238.538 55.7914 238.929C55.9738 239.137 56.1562 239.359 56.2995 239.567C56.521 239.906 56.7034 240.193 56.8337 240.453Z" fill="white"/>
<path d="M70.3577 227.568C70.3577 227.568 73.706 235.307 73.1588 236.792C72.6116 238.278 75.061 238.186 77.4713 237.9C79.8817 237.613 85.1974 238.186 85.7446 238.082C86.2918 237.978 86.1224 235.659 86.396 234.421C86.6696 233.183 88.0767 229.653 87.0214 227.776C85.9661 225.9 88.65 224.428 88.65 224.428L83.3734 217.966L71.5563 221.041L70.3577 227.568Z" fill="#7670E3"/>
<path d="M79.9729 217.08C79.8817 216.663 79.8035 216.259 79.7514 215.933C79.7253 215.803 79.7123 215.686 79.6862 215.581C79.6471 215.334 79.6211 215.178 79.6211 215.178L77.2108 214.513L77.1065 214.487L77.0544 214.474L76.9372 214.435L75.5952 214.07C75.5952 214.083 75.8297 215.946 75.6082 219.581C75.5561 220.506 76.7548 221.848 79.6081 221.301C82.3571 220.767 80.8328 219.503 80.5331 218.943C80.3898 218.682 80.2595 218.239 80.1292 217.757C80.0641 217.536 80.0119 217.301 79.9729 217.08Z" fill="white"/>
<path d="M77.3409 214.63C77.2367 214.565 77.1455 214.513 77.0934 214.487C77.0673 214.474 77.0413 214.461 77.0413 214.461V214.474C77.0413 214.5 77.0543 214.513 77.0543 214.539C77.4321 216.65 79.4125 217.523 80.116 217.77C80.0639 217.549 80.0118 217.314 79.9597 217.093C79.8685 216.676 79.7903 216.272 79.7382 215.946C79.1128 215.673 77.9012 214.956 77.3409 214.63Z" fill="#FC9171"/>
<path d="M74.5659 214.044C74.5659 214.044 77.9143 217.562 81.393 216.363C84.8847 215.164 82.0574 209.666 79.7513 208.155C77.4453 206.644 70.2013 207.074 74.5659 214.044Z" fill="white"/>
<path d="M76.7806 215.633C76.7285 215.607 76.6894 215.673 76.7285 215.699C77.7708 216.311 78.9564 216.637 80.1551 216.663C80.2072 216.663 80.2202 216.585 80.1681 216.585C78.9825 216.545 77.8099 216.233 76.7806 215.633Z" fill="#FC9171"/>
<path d="M80.0769 212.715C80.0379 212.754 80.103 212.806 80.1421 212.767C80.2593 212.65 80.4548 212.585 80.3766 212.389C80.2984 212.194 80.0379 211.998 79.8815 211.855C79.673 211.647 79.4385 211.451 79.2822 211.191C79.1649 210.995 79.1519 210.761 79.2431 210.591C79.2561 210.578 79.2431 210.552 79.2301 210.552C79.204 210.539 79.178 210.552 79.1649 210.578C79.0868 210.748 79.0737 210.956 79.1649 211.152C79.2952 211.425 79.5297 211.634 79.7512 211.842C79.8554 211.946 79.9727 212.051 80.0769 212.168C80.116 212.22 80.2072 212.272 80.2333 212.337C80.3245 212.572 80.1812 212.611 80.0769 212.715Z" fill="#FC9171"/>
<path d="M77.5234 210.969C77.2889 211.165 77.2368 211.477 77.3541 211.608C77.4713 211.738 77.6798 211.608 77.9013 211.412C78.1227 211.217 78.2921 211.034 78.1749 210.904C78.0706 210.774 77.7579 210.774 77.5234 210.969Z" fill="#FC9171"/>
<path d="M79.7643 209.64C79.5037 209.797 79.3995 210.096 79.4907 210.24C79.5819 210.383 79.8034 210.292 80.064 210.135C80.3245 209.979 80.5069 209.823 80.4157 209.679C80.3376 209.523 80.0249 209.484 79.7643 209.64Z" fill="#FC9171"/>
<path d="M78.2791 211.829C78.1618 211.907 78.1618 212.103 78.2661 212.272C78.3833 212.441 78.5657 212.52 78.683 212.442C78.8002 212.363 78.8002 212.168 78.696 211.999C78.5788 211.816 78.3964 211.751 78.2791 211.829Z" fill="#262F36"/>
<path d="M80.0249 210.643C79.9077 210.722 79.9077 210.917 80.0119 211.086C80.1292 211.256 80.3116 211.334 80.4288 211.256C80.5461 211.178 80.5461 210.982 80.4419 210.813C80.3376 210.643 80.1552 210.565 80.0249 210.643Z" fill="#262F36"/>
<path d="M76.8067 211.425C76.8198 211.269 76.7416 211.113 76.7286 210.969C76.6764 210.565 77.0022 210.188 77.367 209.979C77.7318 209.771 78.1357 209.653 78.4483 209.38C79.0737 208.833 79.0216 207.712 78.3571 207.217L76.6113 207.204C75.3345 207.139 74.0056 207.386 72.9502 208.103C71.8949 208.82 71.1392 210.031 71.1523 211.321C71.1523 211.842 71.2826 212.35 71.4259 212.846C71.6343 213.523 71.8819 214.201 72.3249 214.761C72.7548 215.321 73.4062 215.751 74.1098 215.79C74.8003 215.829 75.7384 215.673 75.6602 214.995C75.5429 213.953 76.2465 213.523 75.9077 212.924C75.8556 212.819 75.7775 212.715 75.7644 212.598C75.7123 212.038 76.7546 211.973 76.8067 211.425Z" fill="#262F36"/>
<path d="M74.4747 213.028C74.2792 213.588 74.6831 214.253 75.3997 214.5C76.1032 214.748 76.8459 214.5 77.0413 213.94C77.2367 213.38 76.8329 212.715 76.1163 212.468C75.4127 212.207 74.6831 212.468 74.4747 213.028Z" fill="white"/>
<path d="M75.2825 214.422C74.8917 214.292 74.6702 213.966 74.5138 213.601C74.4878 213.549 74.4096 213.575 74.4357 213.627C74.592 213.992 74.8135 214.331 75.2044 214.474C75.6604 214.643 76.2336 214.67 76.6896 214.5C76.7417 214.487 76.7157 214.396 76.6636 214.422C76.2336 214.591 75.7255 214.565 75.2825 214.422Z" fill="#FC9171"/>
<path d="M76.2334 213.393C76.2074 213.275 76.0641 213.197 75.9729 213.145C75.9208 213.119 75.8817 213.197 75.9338 213.223C75.9989 213.262 76.1292 213.328 76.1553 213.393C76.1683 213.458 76.1162 213.549 76.1162 213.627C76.1032 213.744 76.1422 213.862 76.2074 213.966C76.2465 214.005 76.3116 213.966 76.2856 213.927C76.2074 213.836 76.1813 213.718 76.2074 213.601C76.2074 213.523 76.2465 213.471 76.2334 213.393Z" fill="#FC9171"/>
<path d="M75.9468 212.376C75.8947 212.363 75.8686 212.454 75.9207 212.454C76.051 212.481 76.1683 212.52 76.2725 212.598C76.3116 212.624 76.3637 212.559 76.3116 212.52C76.2074 212.441 76.0771 212.389 75.9468 212.376Z" fill="#FC9171"/>
<path d="M72.807 212.65C73.1458 212.116 73.706 211.79 74.2662 211.503C74.7092 211.282 75.2955 211.086 75.5952 210.656C75.9209 210.187 75.517 209.653 75.7906 209.171C76.1424 208.572 76.9371 208.546 77.4974 208.298C77.9403 208.116 78.3312 207.712 78.24 207.191C78.24 207.152 78.1749 207.165 78.1879 207.204C78.3312 208.012 77.3801 208.285 76.8068 208.468C76.403 208.585 75.96 208.754 75.7385 209.145C75.4519 209.64 75.8948 210.227 75.4909 210.696C75.1261 211.126 74.5008 211.321 74.0187 211.568C73.237 211.985 72.325 212.741 72.5074 213.757C72.6116 214.278 73.0155 214.656 73.25 215.112C73.5627 215.699 73.3933 216.337 73.0155 216.858C72.2989 217.822 70.8788 218.304 70.6833 219.62C70.6833 219.659 70.7355 219.672 70.7355 219.633C70.9309 218.356 72.2989 217.874 73.0155 216.949C73.3021 216.585 73.5106 216.129 73.4715 215.673C73.4324 215.151 73.0676 214.761 72.807 214.331C72.4553 213.77 72.4553 213.197 72.807 212.65Z" fill="white"/>
<path d="M72.4292 219.959C72.5725 220.037 77.0153 222.526 80.5852 221.379C83.0216 220.598 82.6828 218.865 82.1747 217.966C80.8979 218.239 79.5559 218.292 78.2009 218.305C76.0121 218.318 74.0578 219.217 72.4292 219.959Z" fill="white"/>
<path d="M79.9205 219.855C79.4906 220.181 78.8131 220.155 78.305 220.102C77.3148 219.998 76.3637 219.568 75.6341 218.891C75.608 218.865 75.569 218.904 75.595 218.93C76.4289 219.699 77.5363 220.155 78.6698 220.181C79.1519 220.194 79.6991 220.168 80.0639 219.803C80.4808 219.373 80.4808 218.747 80.3766 218.187C80.3766 218.148 80.3114 218.161 80.3244 218.2C80.4287 218.76 80.4287 219.464 79.9205 219.855Z" fill="white"/>
<path d="M79.5297 220.076C79.4776 220.102 79.4646 220.194 79.5037 220.272C79.5428 220.363 79.6209 220.402 79.6731 220.389C79.7252 220.363 79.7382 220.272 79.6991 220.194C79.66 220.102 79.5819 220.05 79.5297 220.076Z" fill="white"/>
<path d="M81.3407 213.21C81.3407 213.366 81.3146 213.575 81.2495 213.718C81.1583 213.927 80.9889 214.109 80.6892 214.213C80.3505 214.331 80.0769 214.292 79.8554 214.187C79.7251 214.135 79.5948 214.018 79.4776 213.914C79.4385 213.875 79.4255 213.822 79.4385 213.77C79.4515 213.718 79.5036 213.666 79.5688 213.653C79.5818 213.653 79.6078 213.653 79.6209 213.64C79.6339 213.64 79.6339 213.64 79.6469 213.64C79.673 213.64 79.699 213.627 79.7251 213.627C79.7381 213.627 79.7512 213.627 79.7512 213.627C79.8424 213.614 79.9336 213.588 80.0248 213.562C80.0508 213.549 80.0899 213.549 80.116 213.536C80.129 213.536 80.1551 213.523 80.1681 213.523C80.1811 213.523 80.2072 213.51 80.2202 213.51C80.2332 213.51 80.2593 213.497 80.2723 213.497C80.2853 213.497 80.3114 213.484 80.3244 213.484C80.3505 213.471 80.3765 213.471 80.4026 213.458C80.4287 213.445 80.4417 213.445 80.4677 213.432C80.5068 213.419 80.5589 213.393 80.598 213.379C80.6111 213.366 80.6371 213.366 80.6501 213.353C80.7153 213.327 80.7674 213.301 80.8325 213.262C80.8586 213.249 80.8847 213.236 80.9107 213.223C80.9368 213.21 80.9498 213.197 80.9759 213.184C80.9889 213.184 80.9889 213.171 81.0019 213.171C81.028 213.158 81.041 213.145 81.054 213.132C81.0801 213.119 81.1062 213.106 81.1322 213.08C81.1843 213.041 81.2364 213.054 81.2755 213.08C81.3146 213.119 81.3407 213.158 81.3407 213.21Z" fill="#262F36"/>
<path d="M81.2755 213.093C81.0671 213.366 80.7283 213.705 80.3114 213.77C79.9726 213.822 79.673 213.809 79.4385 213.77C79.4515 213.718 79.5036 213.666 79.5688 213.653C79.5818 213.653 79.6078 213.653 79.6209 213.64C79.6339 213.64 79.6339 213.64 79.6469 213.64C79.673 213.64 79.699 213.627 79.7251 213.627C79.7381 213.627 79.7512 213.627 79.7512 213.627C79.8424 213.614 79.9336 213.588 80.0248 213.562C80.0508 213.549 80.0899 213.549 80.116 213.536C80.129 213.536 80.1551 213.523 80.1681 213.523C80.1811 213.523 80.2072 213.51 80.2202 213.51C80.2332 213.51 80.2593 213.497 80.2723 213.497C80.2853 213.497 80.3114 213.484 80.3244 213.484C80.3505 213.471 80.3765 213.471 80.4026 213.458C80.4287 213.445 80.4417 213.445 80.4677 213.432C80.5068 213.419 80.5589 213.393 80.598 213.379C80.6111 213.366 80.6371 213.366 80.6501 213.353C80.7153 213.327 80.7674 213.301 80.8325 213.262C80.8586 213.249 80.8847 213.236 80.9107 213.223C80.9368 213.21 80.9498 213.197 80.9759 213.184C80.9889 213.184 80.9889 213.171 81.0019 213.171C81.028 213.158 81.041 213.145 81.054 213.132C81.0801 213.119 81.1062 213.106 81.1322 213.08C81.1843 213.067 81.2364 213.067 81.2755 213.093Z" fill="white"/>
<path d="M81.2495 213.718C81.1583 213.927 80.989 214.109 80.6893 214.213C80.3506 214.331 80.077 214.292 79.8555 214.187C79.9858 214.07 80.2333 213.888 80.572 213.836C80.572 213.849 80.9759 213.51 81.2495 213.718Z" fill="#E55A4D"/>
<path d="M81.2494 252.622C80.9498 252.453 80.6371 252.296 80.3114 252.153C80.7804 251.241 81.497 250.485 82.3178 249.886C83.8812 248.727 85.7574 247.932 87.6726 247.385C87.6596 247.345 87.6596 247.306 87.6465 247.267C85.6662 247.828 83.7119 248.661 82.1224 249.886C81.3406 250.485 80.6501 251.228 80.2071 252.101C78.1486 251.176 75.8946 250.72 73.6537 250.72C71.2434 250.72 68.8331 251.254 66.6703 252.296L66.5791 252.466C70.2532 250.655 74.6048 250.342 78.5134 251.58C79.0736 251.762 79.6208 251.971 80.1681 252.205C80.1029 252.335 80.0378 252.479 79.9857 252.609C79.9335 252.752 79.8814 252.883 79.8423 253.039C79.673 253.625 79.6078 254.277 79.712 254.876C79.7772 255.254 79.9335 255.462 80.1941 255.593C80.3114 255.658 80.4547 255.71 80.611 255.749C80.6892 255.775 80.7804 255.788 80.8716 255.814C81.4318 255.931 82.1224 255.984 82.5784 255.671C82.7738 255.528 82.9301 255.319 83.0083 255.019C83.2949 253.86 82.1224 253.104 81.2494 252.622ZM82.3178 255.671C82.1093 255.775 81.8618 255.827 81.6012 255.814C81.4579 255.814 81.3016 255.801 81.1322 255.775C80.8195 255.736 80.4938 255.645 80.2462 255.488C80.0638 255.371 79.9205 255.215 79.8684 255.006C79.686 254.342 79.8032 253.56 80.0117 252.922C80.0378 252.844 80.0638 252.765 80.1029 252.674C80.155 252.531 80.2202 252.388 80.2853 252.257C80.7413 252.466 81.1843 252.7 81.6142 252.948C82.1745 253.287 82.7738 253.73 82.9301 254.407C83.0344 255.019 82.7608 255.462 82.3178 255.671Z" fill="white"/>
<path d="M75.4518 260.661C76.2986 260.296 77.2107 260.179 78.1227 260.335C78.9435 260.465 79.647 260.882 80.3766 261.273C81.5753 261.898 82.8912 262.185 84.2331 262.042C84.8715 261.977 85.4839 261.82 86.0702 261.573C86.461 261.403 87.1906 261.143 87.347 260.7C87.4382 260.452 87.2949 260.087 86.9822 260.14C86.6304 260.192 86.5522 260.661 86.5783 260.947C86.7346 262.537 88.6759 262.602 89.8615 262.42C89.9397 262.407 89.9006 262.302 89.8355 262.315C89.0277 262.433 88.1157 262.524 87.4121 262.029C87.0864 261.794 86.8128 261.442 86.7216 261.052C86.6825 260.908 86.6825 260.765 86.7477 260.622C86.7868 260.283 86.904 260.374 87.0995 260.882C87.0473 260.973 86.7086 261.143 86.6044 261.208C85.3797 261.885 83.9204 262.12 82.5394 261.898C81.8619 261.794 81.2105 261.573 80.5981 261.26C80.0379 260.973 79.5037 260.635 78.9044 260.426C77.7579 260.022 76.5201 260.113 75.4127 260.583C75.3215 260.583 75.3866 260.687 75.4518 260.661Z" fill="white"/>
<path d="M71.491 241.079C74.696 241.574 76.924 244.375 80.103 245.013C80.7544 245.144 81.4449 245.183 82.0964 245.053C82.5914 244.961 83.3992 244.753 83.6468 244.258C83.7771 243.997 83.6728 243.658 83.3471 243.606C82.8651 243.541 83.0605 244.193 83.1647 244.427C83.8422 245.978 85.8095 245.626 87.0994 245.287C87.1645 245.274 87.1385 245.157 87.0733 245.183C86.2525 245.404 85.3405 245.665 84.4936 245.404C84.1419 245.3 83.8161 245.105 83.5686 244.831C83.3992 244.649 83.282 244.453 83.2038 244.219C83.1647 244.114 83.1517 244.01 83.1517 243.906C83.5035 244.14 83.5686 244.323 83.3211 244.453C82.8651 244.961 81.7576 245.039 81.1322 245.026C80.3766 245.013 79.6339 244.831 78.9304 244.57C76.3377 243.606 74.3182 241.417 71.504 240.975C71.4519 240.961 71.4128 241.066 71.491 241.079Z" fill="white"/>
<path d="M70.8787 230.069C71.7516 229.496 72.7418 229.196 73.7971 229.183C73.8753 229.183 73.8753 229.066 73.7971 229.066C72.7288 229.079 71.7255 229.392 70.8266 229.978C70.7614 230.004 70.8135 230.108 70.8787 230.069Z" fill="white"/>
<path d="M86.8648 223.959C86.474 225.04 86.4609 226.043 86.7997 227.138C86.8257 227.203 86.93 227.177 86.9039 227.112C86.5652 226.043 86.5912 225.053 86.9691 223.998C86.9951 223.92 86.8779 223.894 86.8648 223.959Z" fill="white"/>
<path d="M76.2075 231.06C77.5103 232.18 79.7513 231.711 81.1323 231.008C81.1975 230.968 81.1453 230.877 81.0802 230.903C79.7513 231.581 77.5494 232.05 76.2987 230.981C76.2335 230.929 76.1553 231.021 76.2075 231.06Z" fill="white"/>
<path opacity="0.8" d="M118.355 185.316C119.723 183.922 122.316 179.296 118.29 177.472C114.264 175.648 115.476 188.247 118.355 185.316Z" fill="white"/>
<path opacity="0.4" d="M197.805 141.344V127.038C197.805 125.11 196.241 123.56 194.326 123.56H182.913C181.206 123.56 180.333 125.605 181.519 126.83C182.144 127.468 183.043 128.12 184.359 128.732C188.984 130.869 195.616 143.441 197.557 141.891C197.726 141.761 197.805 141.552 197.805 141.344Z" fill="white"/>
<path d="M146.967 182.658V209.458C146.967 213.067 149.885 215.985 153.494 215.985H174.887C178.079 215.985 179.721 212.142 177.493 209.862C176.32 208.663 174.627 207.438 172.164 206.305C163.487 202.318 151.071 178.762 147.436 181.655C147.123 181.902 146.967 182.28 146.967 182.658Z" fill="#FFE0C6"/>
</g>
<defs>
<linearGradient id="paint0_linear_1_4" x1="53.3308" y1="76.4024" x2="44.6694" y2="122.597" gradientUnits="userSpaceOnUse">
<stop stop-color="#FECBCD"/>
<stop offset="1" stop-color="#FCADAA"/>
</linearGradient>
<linearGradient id="paint1_linear_1_4" x1="175" y1="34.5" x2="130" y2="280" gradientUnits="userSpaceOnUse">
<stop stop-color="#FECBCD"/>
<stop offset="1" stop-color="#FCADAA"/>
</linearGradient>
</defs>
</svg>
