<svg width="80" height="18" viewBox="0 0 80 18" fill="none" xmlns="http://www.w3.org/2000/svg">
<path d="M8.73161 17.4632C13.554 17.4632 17.4632 13.554 17.4632 8.73161C17.4632 3.90928 13.554 0 8.73161 0C3.90928 0 0 3.90928 0 8.73161C0 13.554 3.90928 17.4632 8.73161 17.4632Z" fill="#00AED6"/>
<path d="M8.73161 17.4632C13.554 17.4632 17.4632 13.554 17.4632 8.73161C17.4632 3.90928 13.554 0 8.73161 0C3.90928 0 0 3.90928 0 8.73161C0 13.554 3.90928 17.4632 8.73161 17.4632Z" fill="#00AED6"/>
<path fill-rule="evenodd" clip-rule="evenodd" d="M13.8174 8.45968C13.7531 7.35091 12.8095 6.49977 11.7 6.54964H6.18455C5.98362 6.54964 5.82074 6.38675 5.82074 6.18582C5.82074 5.98489 5.98362 5.822 6.18455 5.822H11.7727C11.7425 5.06712 11.2277 4.41841 10.4994 4.21757C8.87118 3.93016 7.20521 3.93016 5.57701 4.21757C4.65145 4.44556 3.95909 5.21582 3.83068 6.16035C3.57239 7.87396 3.57239 9.6166 3.83068 11.3302C4.02732 12.3276 4.81888 13.1004 5.82076 13.273C7.84189 13.524 9.8863 13.524 11.9074 13.273C12.8062 13.089 13.4863 12.3503 13.5956 11.4393C13.7765 10.457 13.8509 9.45799 13.8174 8.45968ZM12.0056 9.68211V10.0059C12.0056 10.2068 11.8427 10.3697 11.6418 10.3697C11.4409 10.3697 11.278 10.2068 11.278 10.0059V9.68211C11.1617 9.58019 11.0954 9.43287 11.0961 9.27827C11.0961 8.97687 11.3404 8.73254 11.6418 8.73254C11.9432 8.73254 12.1875 8.97687 12.1875 9.27827C12.1882 9.43287 12.1219 9.58018 12.0056 9.6821V9.68211Z" fill="white"/>
<path d="M24.3658 13.0782C25.1069 14.1355 26.3393 14.7378 27.6288 14.6728C29.1494 14.6728 30.2679 13.7014 30.2679 12.3811V11.6848H30.231C29.3978 12.4991 28.2604 12.9249 27.0973 12.858C25.2599 12.9107 23.5374 11.9665 22.5936 10.3892C21.6497 8.81184 21.6318 6.84761 22.5468 5.25336C23.4618 3.65912 25.1669 2.68373 27.0049 2.70305C28.1901 2.62701 29.3551 3.03731 30.231 3.83927H30.2679V2.88639H32.8715V12.3449C32.8715 15.0942 30.69 17.0006 27.6288 17.0006C25.6237 17.11 23.6877 16.2511 22.4231 14.6913L24.3658 13.0782ZM30.1585 7.19393C30.1585 6.09395 28.9121 5.08564 27.5193 5.08564C25.7585 5.08564 24.5861 6.14938 24.5861 7.74392C24.5339 8.49942 24.8178 9.23943 25.362 9.76608C25.9062 10.2927 26.6551 10.5523 27.4085 10.4754C28.9306 10.4754 30.1585 9.5218 30.1585 8.33015V7.19393ZM39.6902 2.6114C42.8622 2.6114 45.1716 4.86607 45.1716 7.74392C45.1716 10.6218 42.8622 12.8764 39.6902 12.8764C37.7763 13.0019 35.9515 12.052 34.9565 10.4123C33.9614 8.77252 33.9614 6.71533 34.9565 5.07558C35.9515 3.43582 37.7763 2.48593 39.6902 2.6114ZM39.6902 4.99397C38.1741 5.00432 36.9525 6.23986 36.9593 7.75595C36.9662 9.27205 38.1989 10.4965 39.715 10.4932C41.2311 10.4899 42.4584 9.26003 42.4586 7.74392C42.493 7.00133 42.2117 6.27884 41.6843 5.75495C41.1569 5.23106 40.4325 4.95463 39.6902 4.99397ZM46.6382 2.88639H49.2418V3.74761H49.2788C50.1295 2.96526 51.258 2.55608 52.4124 2.6114C55.2075 2.66183 57.4483 4.93939 57.4534 7.73487C57.4584 10.5303 55.2257 12.816 52.4309 12.8764C51.3276 12.9019 50.2505 12.5384 49.3882 11.8497H49.3512V16.7257H46.6382V2.88639ZM51.9918 5.01242C50.5607 5.01242 49.3512 6.02076 49.3512 7.12074V8.34862C49.3512 9.5218 50.5251 10.4932 52.0088 10.4932C53.5223 10.4884 54.7453 9.25773 54.7407 7.74428C54.7359 6.23082 53.5052 5.00774 51.9918 5.01242ZM62.568 6.80879C64.3459 6.57075 64.8774 6.31423 64.8774 5.81896C64.8774 5.1773 64.1995 4.79288 63.155 4.79288C62.0295 4.69757 61.0023 5.43642 60.7347 6.5338L58.1681 6.00229C58.5348 4.02261 60.5699 2.6114 63.0811 2.6114C65.922 2.6114 67.6828 4.05956 67.6828 6.42366V12.6014H65.2441V11.5384H65.2071C64.3805 12.4699 63.1679 12.9643 61.9257 12.8764C59.7811 12.8764 58.2974 11.7033 58.2974 9.98012C58.2975 8.1653 59.5069 7.23088 62.568 6.80879ZM65.0977 7.83558H65.0608C64.822 8.18377 64.309 8.38557 62.9901 8.62361C61.3942 8.91708 60.8271 9.22832 60.8271 9.79678C60.8271 10.3837 61.3032 10.6402 62.3293 10.6402C63.8883 10.6402 65.0977 9.92539 65.0977 8.99027V7.83558ZM72.5943 12.0699L68.1035 2.88639H71.0922L74.0425 9.22833H74.0794L76.9942 2.88639H80L73.2737 16.7257H70.285L72.5943 12.0699Z" fill="black"/>
</svg>
