<svg width="80" height="26" viewBox="0 0 80 26" fill="none" xmlns="http://www.w3.org/2000/svg">
<path d="M41.2659 22.2508C41.8292 21.9694 42.529 20.9782 42.8055 20.0701C42.914 19.7141 43.9317 16.264 45.0672 12.4033C46.2825 8.27136 47.3135 5.01942 47.5734 4.49791C48.355 2.92976 49.4788 2.4534 52.3971 2.4534H53.9418V0.523553L51.3794 0.530987C49.0283 0.537815 48.9256 0.632898 48.2172 0.969095C47.1265 1.4867 46.2869 2.29785 45.7348 3.36732C45.4671 3.88591 44.8911 5.55299 44.4258 7.15576C41.5061 17.2139 40.7145 19.8171 40.5051 20.0484C40.1782 20.4096 39.6818 20.3778 39.4204 19.9789C39.3016 19.7975 38.4691 17.0834 37.5705 13.9476C35.3305 6.13052 34.7721 4.31222 34.3647 3.50824C33.8722 2.53638 32.7809 1.43301 31.8764 0.992327C31.1412 0.634138 31.1011 0.548028 28.6441 0.534363L26.0002 0.519657V2.41966L28.0107 2.47972C29.715 2.53062 30.1249 2.5862 30.7026 2.84464C32.352 3.58252 32.4875 3.87693 34.6608 11.4492C35.9954 16.0991 37.0813 19.7179 37.3399 20.3769C37.6727 21.2251 38.1696 21.8888 38.726 22.228C39.2863 22.5697 40.604 22.5815 41.2659 22.2508Z" fill="#5726D7"/>
<path d="M70.9112 25.2303C76.0471 23.8566 79.5603 19.544 79.9526 14.1319C80.2913 9.45933 78.8087 5.52545 75.7145 2.88649C73.3822 0.897319 70.7662 0 67.2992 0C63.7596 0 60.9662 1.01552 58.6007 3.16227C57.3775 4.27234 56.1577 6.07541 55.5482 7.6745C54.4572 10.5365 54.5143 15.5604 55.6673 18.1628C57.4108 22.0976 60.4472 24.5484 64.6595 25.4207C66.0728 25.7134 69.4948 25.6091 70.9112 25.2303ZM64.9821 23.3733C62.2765 22.8205 60.0293 21.3238 58.5714 19.1038C56.2376 15.5499 56.3191 9.69771 58.752 6.1466C60.1614 4.08922 62.5537 2.60539 65.1468 2.18018C66.4567 1.96537 69.3638 2.0699 70.5023 2.37273C73.7114 3.22637 76.3457 5.83003 77.3637 9.1541C78.2127 11.9266 77.9527 15.6403 76.7403 18.0598C74.93 21.6723 71.5967 23.6073 67.2532 23.5671C66.4914 23.5601 65.4694 23.4729 64.9821 23.3733ZM68.7304 22.6113C72.5702 22.1413 75.3531 19.8706 76.5355 16.2425C76.8068 15.41 76.8896 14.8226 76.9428 13.3548C77.0431 10.5835 76.6149 8.84644 75.3573 6.92307C74.2024 5.15683 72.6309 3.97352 70.5672 3.3162C69.5214 2.98311 69.2181 2.94857 67.3674 2.95184C65.5361 2.95507 65.2024 2.99345 64.1676 3.31981C62.1173 3.96645 60.6027 5.10193 59.4082 6.88785C58.1336 8.79344 57.6921 10.5573 57.7893 13.3548C57.8427 14.8911 57.9149 15.3788 58.2236 16.2879C59.4435 19.8805 62.1898 22.1262 65.9625 22.616C67.2057 22.7774 67.3754 22.7771 68.7304 22.6113ZM65.2127 20.3768C62.7306 19.6945 60.8261 17.6981 60.1415 15.0612C59.8612 13.9815 59.8624 11.6355 60.1438 10.5633C60.8934 7.70668 62.9396 5.67675 65.6479 5.10267C69.8422 4.21362 73.6611 6.54939 74.6011 10.5787C74.8635 11.7033 74.8929 13.6607 74.6644 14.7886C74.1197 17.4773 72.0425 19.695 69.4119 20.3964C68.5504 20.6261 66.0775 20.6145 65.2127 20.3768Z" fill="#5726D7"/>
<path d="M42.5247 25.1071C43.5974 24.5791 44.3722 23.7628 45.0094 22.4895C45.6372 21.235 45.9556 20.2089 48.7518 10.427C49.9093 6.37762 49.898 6.40814 50.4165 5.911C50.8092 5.53439 50.8807 5.5185 52.3829 5.47436L53.9418 5.42855V3.37256L52.0467 3.43305C50.3728 3.48647 50.0759 3.53248 49.5032 3.82716C48.3404 4.42558 48.159 4.83304 46.5903 10.3701C43.5394 21.1388 43.4495 21.4085 42.5519 22.4752C41.8024 23.3659 40.2356 23.7925 38.9705 23.4502C38.1213 23.2205 37.2578 22.3654 36.7044 21.2061C36.314 20.388 34.9276 15.7349 32.5182 7.15577C31.9922 5.28293 31.7453 4.78962 31.0259 4.17382C30.318 3.56789 29.9169 3.48219 27.7721 3.47855L26.0684 3.47566L25.9883 5.45201H27.3616C28.2486 5.45201 28.9014 5.52152 29.2047 5.64826C29.6852 5.84903 30.1694 6.47955 30.31 7.08762C30.525 8.0174 34.2337 20.5861 34.5084 21.316C35.3826 23.6386 36.3368 24.739 38.0141 25.3593C38.6045 25.5776 39.0193 25.6221 40.1807 25.5916C41.4883 25.5573 41.6985 25.5139 42.5247 25.1071Z" fill="#5726D7"/>
<path d="M15.5733 25.3664C17.8785 24.8883 19.795 23.8925 21.4681 22.3036C23.1406 20.7153 24.3036 18.7107 24.9187 16.356C25.38 14.5905 25.4367 11.8281 25.0502 9.95329C24.0094 4.90475 20.4054 1.20159 15.6117 0.255372C13.754 -0.11132 10.5609 -0.0430079 8.89456 0.399077C4.88977 1.46154 1.51636 4.84447 0.525877 8.79137C-1.05232 15.0802 0.980896 20.8453 5.8293 23.829C6.9479 24.5174 8.92139 25.2571 10.2121 25.4717C11.55 25.6942 14.2486 25.6412 15.5733 25.3664ZM10.0095 23.3158C8.06643 22.8927 6.67652 22.1234 5.1994 20.6531C4.17746 19.636 3.85798 19.2113 3.39467 18.2541C1.92165 15.2108 1.76566 11.5798 2.9666 8.28912C3.88946 5.76042 5.96058 3.63397 8.38925 2.72161C10.8656 1.79132 14.6283 1.81801 17.0024 2.7827C20.8525 4.34714 23.1379 8.08301 23.1379 12.8122C23.1379 15.3101 22.5961 17.2999 21.4207 19.1179C20.1173 21.1341 18.2757 22.4903 15.9103 23.1759C14.428 23.6056 11.6438 23.6716 10.0095 23.3158ZM15.458 22.3475C17.9885 21.7013 20.0325 20.0899 21.1635 17.8495C22.0436 16.1059 22.2506 15.1602 22.251 12.8804C22.2515 10.4737 22.0826 9.69106 21.1562 7.80451C20.0872 5.62771 18.3116 4.1123 15.914 3.3305C14.8749 2.99165 14.5518 2.95157 12.7791 2.94159C11.0983 2.93213 10.6404 2.97746 9.71714 3.24475C8.07138 3.72121 7.12268 4.28379 5.88843 5.51519C4.62663 6.77407 3.81961 8.17364 3.35383 9.91084C2.95124 11.4124 2.95124 14.2121 3.35383 15.7136C4.18585 18.8167 6.27954 21.1082 9.20369 22.1162C11.1869 22.7997 13.3705 22.8805 15.458 22.3475ZM10.3939 20.3237C9.20054 19.9762 8.46126 19.552 7.57401 18.7057C6.57042 17.7484 6.077 16.971 5.607 15.6064C5.27427 14.6403 5.23179 14.3217 5.23449 12.8122C5.23712 11.337 5.28653 10.9593 5.60276 9.99662C6.04798 8.64124 6.83867 7.42337 7.77994 6.64323C8.74312 5.84493 9.43655 5.49397 10.678 5.17647C14.9686 4.07911 19.0482 6.52718 19.9397 10.7342C20.1876 11.9038 20.1892 13.7131 19.9435 14.8724C19.3799 17.531 17.3317 19.7001 14.7498 20.3726C13.66 20.6565 11.4512 20.6317 10.3939 20.3237Z" fill="#5726D7"/>
</svg>
