<svg width="80" height="36" viewBox="0 0 80 36" fill="none" xmlns="http://www.w3.org/2000/svg">
<g clip-path="url(#clip0_752_321)">
<path fill-rule="evenodd" clip-rule="evenodd" d="M24.9554 0.00720051L1.05561 3.19422C1.05561 3.19422 0 3.3168 0 4.58872V27.2858C0 27.2858 0.144209 29.9421 3.17981 29.9421H30.2666C30.2666 29.9421 32.6807 29.3653 32.6807 26.9483V8.21991C32.6807 8.21991 32.7282 5.56358 29.5427 5.56358H3.42208C3.11467 5.49858 2.83195 5.34789 2.6066 5.12892C2.38126 4.90996 2.22251 4.63168 2.14871 4.32626C2.0694 3.90517 2.23957 3.86191 2.68517 3.86191H26.67V1.2748C26.67 1.2748 26.5849 -0.112493 24.9554 0.00720051Z" fill="#E8451E"/>
<path fill-rule="evenodd" clip-rule="evenodd" d="M16.8249 26.0903C14.8435 26.0903 13.3841 25.2827 11.231 23.1528C11.0547 22.9687 10.9572 22.7231 10.9593 22.4682C10.9615 22.2133 11.063 21.9693 11.2424 21.7882C11.4218 21.6072 11.6648 21.5033 11.9197 21.4988C12.1745 21.4943 12.4211 21.5894 12.6068 21.764C14.8738 24.005 15.9236 24.5617 17.7349 24.0714C18.7876 23.783 19.7322 22.4447 19.787 20.906C19.8302 19.7105 18.9866 18.9303 17.2806 18.5886C14.2176 17.9757 12.4092 16.8047 11.9074 15.1059C11.5036 13.7388 12.0343 12.2116 13.3624 10.9238L13.4172 10.8748C16.2726 8.48815 19.588 10.2662 20.9421 11.5411C21.1228 11.7205 21.2264 11.9633 21.2308 12.2178C21.2353 12.4724 21.1402 12.7187 20.9659 12.9043C20.7916 13.0899 20.5517 13.2002 20.2973 13.2117C20.043 13.2232 19.7942 13.135 19.6038 12.9658C19.4899 12.8591 16.9244 10.5287 14.7007 12.3515C13.9407 13.1028 13.5975 13.9263 13.785 14.5579C14.0561 15.478 15.4347 16.2307 17.6656 16.6778C21.4569 17.4363 21.7799 19.9412 21.7424 20.9824C21.6617 23.2508 19.7639 25.7918 17.9829 26.0168C17.5988 26.0657 17.2121 26.0903 16.8249 26.0903Z" fill="white"/>
<path fill-rule="evenodd" clip-rule="evenodd" d="M42.7335 5.42659C42.301 5.16248 41.8328 4.9619 41.3433 4.83101C40.3338 4.54259 39.6056 4.17341 39.258 3.70185C38.948 3.2923 38.948 2.75872 39.3201 2.07517C39.5306 1.66562 40.0411 1.40604 40.6972 1.35413C41.5277 1.32121 42.3515 1.51408 43.081 1.91222C43.1862 1.96481 43.308 1.97346 43.4195 1.93627C43.5311 1.89909 43.6233 1.81911 43.6759 1.71393C43.7285 1.60875 43.7371 1.48699 43.6999 1.37543C43.6628 1.26387 43.5828 1.17166 43.4776 1.11907C42.4609 0.59703 41.4587 0.398021 40.6237 0.461473C39.6546 0.53502 38.8932 0.957553 38.5269 1.63966C37.9674 2.67076 38.0049 3.51438 38.5269 4.221C39.01 4.85408 39.8911 5.33862 41.0953 5.67319C41.5074 5.78794 41.9033 5.95464 42.2735 6.16927C42.745 6.45769 43.0551 6.79081 43.205 7.14989C43.3486 7.48888 43.3691 7.86745 43.2627 8.21992C43.2046 8.40258 43.1252 8.57779 43.0262 8.74196C43.0262 8.76647 43.0017 8.79099 42.9772 8.82848C42.6167 9.36206 42.0341 9.63461 41.326 9.63461C40.5444 9.63461 39.5883 9.32456 38.5716 8.70446C38.4274 8.61794 38.2832 8.52997 38.1621 8.44344C38.0634 8.37766 37.9426 8.35377 37.8263 8.37703C37.71 8.40029 37.6077 8.46879 37.542 8.56746C37.4762 8.66614 37.4523 8.78691 37.4755 8.9032C37.4988 9.01949 37.5673 9.12178 37.666 9.18756C37.8116 9.27938 37.9522 9.37903 38.0871 9.48608C39.2537 10.1941 40.3584 10.5402 41.3015 10.5402C42.3196 10.5402 43.1632 10.1437 43.6968 9.34908C43.7184 9.30579 43.7435 9.26431 43.7718 9.22506C43.9158 8.99297 44.0283 8.74273 44.1063 8.48094C44.2729 7.93261 44.2376 7.34276 44.0068 6.81821C43.7387 6.23237 43.2933 5.74558 42.7335 5.42659Z" fill="#E8451E"/>
<path fill-rule="evenodd" clip-rule="evenodd" d="M49.5719 4.44597C49.0637 4.32116 48.531 4.33812 48.0318 4.495C47.4631 4.67065 46.9385 4.96564 46.4931 5.36026V0.884009C46.4866 0.770022 46.4367 0.662835 46.3537 0.584429C46.2707 0.506023 46.1609 0.462341 46.0467 0.462341C45.9326 0.462341 45.8227 0.506023 45.7397 0.584429C45.6567 0.662835 45.6069 0.770022 45.6004 0.884009V10.1047C45.6069 10.2187 45.6567 10.3259 45.7397 10.4043C45.8227 10.4827 45.9326 10.5264 46.0467 10.5264C46.1609 10.5264 46.2707 10.4827 46.3537 10.4043C46.4367 10.3259 46.4866 10.2187 46.4931 10.1047V6.65381C46.5019 6.64688 46.5101 6.63916 46.5176 6.63074C47.0771 5.94719 47.6972 5.5261 48.2928 5.34007C48.6343 5.2294 48.9999 5.21641 49.3484 5.30257C49.632 5.37944 49.8811 5.55027 50.055 5.78712C50.2486 6.08706 50.3439 6.43993 50.3276 6.79658V10.0946C50.3276 10.2132 50.3747 10.3269 50.4585 10.4108C50.5423 10.4946 50.656 10.5417 50.7746 10.5417C50.8932 10.5417 51.0069 10.4946 51.0907 10.4108C51.1746 10.3269 51.2216 10.2132 51.2216 10.0946V6.79225C51.237 6.25288 51.0804 5.7226 50.7746 5.27806C50.4825 4.86947 50.0573 4.57529 49.5719 4.44597Z" fill="#E8451E"/>
<path fill-rule="evenodd" clip-rule="evenodd" d="M57.1659 9.01306C56.7501 9.42599 56.1879 9.65773 55.602 9.65773C55.016 9.65773 54.4538 9.42599 54.038 9.01306C53.6251 8.5973 53.3933 8.0351 53.3933 7.44912C53.3933 6.86314 53.6251 6.30094 54.038 5.88517C54.4554 5.4742 55.017 5.24283 55.6027 5.24055C56.0396 5.24084 56.4667 5.37059 56.8299 5.61344C57.1932 5.85629 57.4763 6.20133 57.6436 6.60499C57.8109 7.00866 57.8548 7.45283 57.7697 7.88143C57.6847 8.31002 57.4746 8.70381 57.1659 9.01306ZM55.6027 4.35944C54.7948 4.37689 54.0259 4.71008 53.4607 5.2876C52.8955 5.86513 52.579 6.64105 52.579 7.44912C52.579 8.25718 52.8955 9.0331 53.4607 9.61063C54.0259 10.1882 54.7948 10.5213 55.6027 10.5388C56.4106 10.5213 57.1795 10.1882 57.7446 9.61063C58.3098 9.0331 58.6263 8.25718 58.6263 7.44912C58.6263 6.64105 58.3098 5.86513 57.7446 5.2876C57.1795 4.71008 56.4106 4.37689 55.6027 4.35944Z" fill="#E8451E"/>
<path fill-rule="evenodd" clip-rule="evenodd" d="M64.6864 9.01307C64.2705 9.4258 63.7092 9.65882 63.1232 9.66201C62.6863 9.66173 62.2592 9.53197 61.896 9.28912C61.5327 9.04628 61.2496 8.70123 61.0823 8.29757C60.915 7.89391 60.8711 7.44973 60.9562 7.02113C61.0412 6.59254 61.2513 6.19875 61.56 5.8895C61.9766 5.47835 62.5379 5.24692 63.1232 5.24488C63.5593 5.24601 63.9853 5.37607 64.3476 5.61871C64.7099 5.86134 64.9924 6.20571 65.1595 6.60849C65.3266 7.01126 65.3708 7.45446 65.2866 7.88232C65.2025 8.31018 64.9936 8.7036 64.6864 9.01307ZM63.1347 4.35944C62.7291 4.35896 62.3273 4.43874 61.9526 4.59417C61.5779 4.74959 61.2377 4.9776 60.9514 5.26507C60.9151 5.29492 60.8818 5.32824 60.8519 5.36458V4.80649C60.8519 4.68792 60.8048 4.57421 60.721 4.49038C60.6371 4.40654 60.5234 4.35944 60.4049 4.35944C60.2863 4.35944 60.1726 4.40654 60.0888 4.49038C60.0049 4.57421 59.9578 4.68792 59.9578 4.80649V13.5917C59.9578 13.7103 60.0049 13.824 60.0888 13.9078C60.1726 13.9917 60.2863 14.0388 60.4049 14.0388C60.5234 14.0388 60.6371 13.9917 60.721 13.9078C60.8048 13.824 60.8519 13.7103 60.8519 13.5917V9.53366C60.8879 9.56388 60.9212 9.59717 60.9514 9.63317C61.3107 9.99226 61.753 10.2572 62.2391 10.4046C62.7252 10.5519 63.2402 10.5771 63.7384 10.4779C64.2366 10.3787 64.7026 10.1581 65.0952 9.83581C65.4878 9.51348 65.7948 9.09931 65.9891 8.62997C66.1834 8.16064 66.259 7.65063 66.2091 7.14512C66.1593 6.63961 65.9855 6.1542 65.7032 5.73188C65.4209 5.30957 65.0389 4.96338 64.5909 4.72399C64.1428 4.48459 63.6427 4.35938 63.1347 4.35944Z" fill="#E8451E"/>
<path fill-rule="evenodd" clip-rule="evenodd" d="M68.4993 6.76631C68.6098 6.40534 68.808 6.07735 69.0761 5.81165C69.2513 5.63436 69.4599 5.49361 69.6899 5.39754C69.9199 5.30148 70.1666 5.25201 70.4158 5.25201C70.6651 5.25201 70.9118 5.30148 71.1418 5.39754C71.3718 5.49361 71.5804 5.63436 71.7555 5.81165C72.022 6.08235 72.2258 6.40824 72.3526 6.76631H68.4993ZM72.3843 5.18001C72.1292 4.91868 71.8241 4.71145 71.4871 4.57072C71.1501 4.42998 70.7882 4.35862 70.423 4.3609C70.0573 4.3548 69.6943 4.42442 69.3568 4.56539C69.0193 4.70635 68.7145 4.91561 68.4618 5.18001C67.3947 6.33368 67.4076 7.57532 67.8287 8.8285C68.0171 9.36267 68.3858 9.81448 68.8714 10.1062C69.3653 10.4142 69.9411 10.5651 70.5226 10.5388C71.2325 10.5126 71.9312 10.3526 72.5819 10.0673C72.6389 10.0468 72.6912 10.0148 72.7355 9.97343C72.7798 9.93203 72.8152 9.88202 72.8395 9.82647C72.8638 9.77091 72.8765 9.71098 72.8769 9.65034C72.8772 9.58971 72.8652 9.52964 72.8415 9.47382C72.8178 9.418 72.783 9.3676 72.7391 9.3257C72.6953 9.28381 72.6433 9.25131 72.5865 9.23018C72.5297 9.20905 72.4691 9.19975 72.4086 9.20284C72.348 9.20593 72.2887 9.22135 72.2343 9.24815C71.6903 9.49792 71.1021 9.63714 70.5038 9.6577C70.0945 9.67227 69.6896 9.56917 69.3372 9.36063C69.0246 9.14773 68.7826 8.84648 68.6421 8.49538C68.5469 8.23024 68.4807 7.95562 68.4445 7.67627H72.5516C72.7751 7.67627 73.5077 7.7253 73.1284 6.47212C72.9921 5.98499 72.7352 5.54009 72.3814 5.17857L72.3843 5.18001Z" fill="#E8451E"/>
<path fill-rule="evenodd" clip-rule="evenodd" d="M75.2772 6.76625C75.387 6.40498 75.5853 6.07684 75.854 5.81159C76.0293 5.63426 76.238 5.49348 76.4681 5.3974C76.6982 5.30131 76.9451 5.25184 77.1944 5.25184C77.4438 5.25184 77.6906 5.30131 77.9207 5.3974C78.1508 5.49348 78.3596 5.63426 78.5349 5.81159C78.8008 6.08244 79.0041 6.40831 79.1304 6.76625H75.2772ZM80.0044 7.23205V6.90614C79.9841 6.75939 79.9513 6.61465 79.9063 6.47351C79.7716 5.98478 79.515 5.53822 79.1607 5.17563C78.906 4.9142 78.6011 4.7069 78.2644 4.56615C77.9276 4.4254 77.5659 4.3541 77.2009 4.35652C76.8352 4.35033 76.4721 4.41991 76.1346 4.56088C75.7971 4.70185 75.4924 4.91116 75.2397 5.17563C74.1725 6.3293 74.184 7.57094 74.6066 8.82412C74.7946 9.35853 75.1634 9.81048 75.6492 10.1018C76.1431 10.4098 76.7189 10.5607 77.3004 10.5344C78.0104 10.5082 78.7091 10.3482 79.3597 10.0629C79.4168 10.0424 79.4691 10.0105 79.5134 9.96905C79.5577 9.92765 79.5931 9.87764 79.6174 9.82209C79.6417 9.76653 79.6544 9.7066 79.6547 9.64596C79.6551 9.58533 79.643 9.52526 79.6193 9.46944C79.5957 9.41362 79.5608 9.36322 79.517 9.32132C79.4732 9.27943 79.4212 9.24693 79.3644 9.2258C79.3075 9.20467 79.247 9.19537 79.1864 9.19846C79.1259 9.20155 79.0666 9.21697 79.0122 9.24377C78.4682 9.49354 77.8799 9.63276 77.2817 9.65332C76.8724 9.66789 76.4675 9.56479 76.115 9.35625C75.8021 9.14374 75.56 8.84237 75.4199 8.491C75.325 8.22572 75.2583 7.95116 75.2209 7.67189H79.3294C79.4924 7.67333 79.925 7.69929 80 7.23205H80.0044Z" fill="#E8451E"/>
<path fill-rule="evenodd" clip-rule="evenodd" d="M45.0307 22.064H40.393V15.3251H44.575C44.6468 15.3246 44.7186 15.3285 44.7899 15.3366C45.4273 15.4073 48.2105 15.889 48.2105 18.8741C48.2105 22.0611 45.0278 22.0611 45.0278 22.0611L45.0307 22.064ZM44.2116 12.7567H37.7828V29.9421H40.393V24.8126H44.4914C45.8668 24.826 47.2206 24.4693 48.411 23.7801C49.817 22.948 51.2216 21.4814 51.2216 18.9462C51.2216 16.5682 49.9872 15.0598 48.6749 14.1267C47.3652 13.2179 45.8056 12.7382 44.2116 12.7538V12.7567Z" fill="#E8451E"/>
<path fill-rule="evenodd" clip-rule="evenodd" d="M57.6837 27.5756C56.9189 27.5756 56.1714 27.3489 55.5355 26.9242C54.8996 26.4995 54.4038 25.8958 54.1109 25.1894C53.818 24.483 53.7411 23.7056 53.8899 22.9555C54.0386 22.2054 54.4064 21.5163 54.9468 20.9751C55.4871 20.434 56.1757 20.0652 56.9256 19.9153C57.6755 19.7654 58.4529 19.8412 59.1598 20.133C59.8666 20.4249 60.471 20.9197 60.8967 21.555C61.3224 22.1903 61.5502 22.9375 61.5513 23.7022V23.7123C61.5506 24.7374 61.1427 25.7203 60.4174 26.4448C59.6921 27.1693 58.7088 27.576 57.6837 27.5756ZM61.5513 17.7262V18.9361C60.6493 18.204 59.5584 17.7425 58.4049 17.605C57.2513 17.4675 56.0825 17.6596 55.0337 18.1592C53.9849 18.6587 53.0991 19.4452 52.4789 20.4275C51.8588 21.4098 51.5296 22.5477 51.5296 23.7094C51.5296 24.8711 51.8588 26.009 52.4789 26.9913C53.0991 27.9736 53.9849 28.7601 55.0337 29.2596C56.0825 29.7592 57.2513 29.9513 58.4049 29.8138C59.5584 29.6763 60.6493 29.2148 61.5513 28.4827V29.8513H64.1586V17.7262H61.5513Z" fill="#E8451E"/>
<path fill-rule="evenodd" clip-rule="evenodd" d="M65.3325 17.5604H68.8195L72.9107 25.3909L76.8577 17.5604H80V17.582L70.6293 35.0241H67.5591L71.1369 28.5419L65.3325 17.5604Z" fill="#E8451E"/>
</g>
<defs>
<clipPath id="clip0_752_321">
<rect width="80" height="35.0241" fill="white"/>
</clipPath>
</defs>
</svg>
